<svg xmlns="http://www.w3.org/2000/svg" viewBox="0 0 288 127.27"><g id="Clean_space" data-name="Clean space"><rect width="288" height="127.27" fill="none"/></g><g id="Logo_Artwork" data-name="Logo Artwork"><path d="M50.94,51.93a4.43,4.43,0,1,0-.07,8.85,4.43,4.43,0,0,0,.07-8.85Z" fill="#2375bc"/><path d="M62,68.21a2.55,2.55,0,0,0-2.53,2.46,2.51,2.51,0,0,0,5,0A2.56,2.56,0,0,0,62,68.21Z" fill="#2375bc"/><path d="M22.06,70.46v0Z" fill="#001c46"/><path d="M100.66,68.81a8.17,8.17,0,0,1-1.18-2.5,37.84,37.84,0,0,0-14.12-23c-3.09-2.37-6.59-4.21-10.27-6.53v-11c2.14-1.9,1.86-4.7,1.8-7.46-.1-4.05-2.56-6.26-6.52-5.83-1.24.13-2,.76-2,2a1.88,1.88,0,0,0,2,2l2.26.1v6l-2.1.74c.4,7,.81,14,1.21,20.89,12.06,5.2,18.78,13.84,20.54,26.2-2.07,3.15-2.49,6.49-2.56,9.87-.09,4.31,0,8.62,0,12.92,0,3.21-.73,6.22-3.51,8.31l-.37.23-.73.36-6.41.88-.4,1.38c2.6.06,5,.28,7.39.13A5.94,5.94,0,0,0,90.44,102C92.83,99.11,93,95.67,93,92.2l0-.39,0-1.46c0-2.37.08-4.75.13-7.12,1-.12,2.06-.18,3.06-.39a7.46,7.46,0,0,0,1.62-.71l-.21-.68H93.31l.46-1.68,4.14,0L98.8,79l-.23-.46h-5l.55-1.76H99.2l-.87-1.17-4.08-.28.62-1.53H98.4l.11-.69-3.44-.75c.63-1.17,1.22-2.28,1.83-3.43,5.23,4.58,4.09,13.2-2.35,18.48,0,.46.06,1,.11,1.63C102.34,86.45,105,75.79,100.66,68.81Z" fill="#0358ad"/><path d="M83.46,101.28c-1-.83-1.86-1.4-2.58-2.08-1.26-1.2-1.24-1.23-.11-2.4,1.22,1.4,2.45,2.79,3.74,4.26l1.63-1-5-4.47,1.26-1.28,4.31,4.91.81-1.36L88,97.2Q85.75,95.58,83.48,94l.55-.7c2-.11,2.54,2.37,4.27,3,.72-2.14-1.73-2.44-2.06-4l1.09-.56L88.7,91a5.27,5.27,0,0,0,.1-.93,3.08,3.08,0,0,0-.18-.74c-9.7.76-14.12,6.6-15.21,15.81-.79-.73-1.13-1.39-1.64-1.87a8.49,8.49,0,0,0-1.65-1l-.27.4,2.76,4.44L71.2,109l-4-6.2-1.17.6,4.17,6.65-2.06,1.25L64,104.51l-1.14.65,4,6.81-2.82.68-3.24-5.94-.86,1.12,2.28,4.47-.47.56-6.08-2.16-1.12.72c3.74,2.77,7.64,4,12.09,3.11,5.24-1,8.42-4.32,10-9.29.63-1.93,1.37-3.82,2-5.67C80.45,99.83,80.77,102.51,83.46,101.28Z" fill="#0358ad"/><path d="M59.1,102.84c-2,1.47-4,3.09-6.09,4.35-3.31,2-6.1,1.28-8.73-2,.94-.91,1.91-1.83,2.95-2.81,1,1.63-.65,3.63,1.16,4.55l.79-.1v-5.16l.74,0v5.43l1.62-.52v-5l.53-.15a4.67,4.67,0,0,1,.61,1.33c.09.86,0,1.75,0,2.62,0,.17.36.33.56.49l.47-.36.16-.61.09-2.62,2.39,1.16.9-.83c-3.4-3.87-7.49-3.59-11.67-2.3C36.19,95.58,29.88,84.8,30.32,73c.56-14.69,8.36-24.32,22.46-29.43.26-4.18.54-8.51.82-12.84V23.17l-1.73-.65a10.75,10.75,0,0,1-.25-1.7c0-1.3.15-2.59.24-4.05a8.43,8.43,0,0,0,1.81-.33c.83-.36,2-.72,2.28-1.4s-.38-1.68-.58-2.37c-4.76-.42-7.17.86-7.59,4.2s-.85,6.66,1.7,9V36.06c-.56.19-.9.32-1.25.42A35.2,35.2,0,0,0,28.7,51.11a36.79,36.79,0,0,0-6.64,19.35c0,2,0,4,0,6a19.44,19.44,0,0,0,.09,2.42C24.69,93.68,33.27,103.74,46.7,110a8.62,8.62,0,0,0,9.36-1c1.75-1.3,3.39-2.77,5-4.2,3.43-3,7.11-5,11.94-2.87l.29-1.67C67.92,98.2,63.36,99.73,59.1,102.84Z" fill="#0f385d"/><path d="M48.27,69.21a4.67,4.67,0,0,0-4.64,3.6,4.91,4.91,0,0,0,2.2,5.32,4.78,4.78,0,0,0,6-.81,4,4,0,0,0,1.12-4.63C52.15,70.29,50.67,69.18,48.27,69.21Z" fill="#0f385d"/><path d="M52.71,85.51A2.61,2.61,0,0,0,55.24,88a2.51,2.51,0,1,0-2.53-2.49Z" fill="#0f385d"/><rect x="122.8" y="43.15" width="4.12" height="3.4" fill="#224365"/><path d="M175.1,57.93l-1.35-5.34a6.62,6.62,0,0,0-1.17-2.74,3.3,3.3,0,0,0-2.07-1.11c-.28-.05-.61-.1-1-.13s-.8,0-1.26,0h-8V52.5h7.71a2.81,2.81,0,0,1,1.18.19h0A2,2,0,0,1,170,54v0c.07.29.14.6.23.94s.18.67.27,1,.18.69.27,1,.16.65.23.94H158.22v0h-1.35a1.17,1.17,0,0,1-.75-1.26V48.59H152v8.07a1.52,1.52,0,0,1-.16.77.94.94,0,0,1-.52.43l-.35,0-.51,0L150,58H148.5c-.49-.16-.73-.58-.73-1.26V48.59h-4.12v8.07a1.16,1.16,0,0,1-.71,1.22l-.18,0-.4,0h-2.11a1.06,1.06,0,0,1-.58-.44,1.61,1.61,0,0,1-.18-.82V48.59h-4.13v8.07a1.15,1.15,0,0,1-.72,1.22h0a1.66,1.66,0,0,1-.31.06l-.52,0v0h-1.56V48.59h-4.1V61.38q0,1-.78,1.23h-4.87c-.53-.13-.8-.54-.8-1.23V48.59h-4.12V66.52h10.15a11.8,11.8,0,0,0,2.43-.21l0,0a2.33,2.33,0,0,0,1.64-1.15,5.91,5.91,0,0,0,.47-2.64v-.7H135c.55,0,1,0,1.39,0a5.79,5.79,0,0,0,.91-.11,1.65,1.65,0,0,0,1-.58,4,4,0,0,0,.73-1.28,2.79,2.79,0,0,0,2.72,2h3a2.92,2.92,0,0,0,.82-.11,1.76,1.76,0,0,0,1-.59,3.82,3.82,0,0,0,.74-1.28,2.8,2.8,0,0,0,2.74,2h1.61c.55,0,1,0,1.38,0a6.11,6.11,0,0,0,.91-.11,1.65,1.65,0,0,0,1-.58,4,4,0,0,0,.73-1.28,2.78,2.78,0,0,0,2.58,2h18.42V57.93Z" fill="#224365"/><path d="M196.71,61.38q0,1-.78,1.23h-4.87c-.53-.13-.8-.54-.8-1.23V48.59h-4.12V66.52h10.17a11.66,11.66,0,0,0,2.41-.21l0,0a2.33,2.33,0,0,0,1.64-1.15,5.77,5.77,0,0,0,.47-2.64V48.59h-4.1Z" fill="#1c71bb"/><rect x="191.37" y="43.15" width="4.11" height="3.4" fill="#1c71bb"/><rect x="233.34" y="63.87" width="4.11" height="3.41" fill="#1c71bb"/><rect x="227.48" y="63.87" width="4.12" height="3.41" fill="#1c71bb"/><path d="M233.36,56.7a1.1,1.1,0,0,1-.8,1.23h-6.81V52.52a5.06,5.06,0,0,0-.55-2.68,2.54,2.54,0,0,0-1.84-1.08,8.27,8.27,0,0,0-1-.13c-.36,0-.73,0-1.14,0h-5.68c-.49,0-.92,0-1.29,0a6.78,6.78,0,0,0-1,.13,2.37,2.37,0,0,0-1.73,1.1,5.36,5.36,0,0,0-.53,2.66v4.14a1.14,1.14,0,0,1-.73,1.2l-.57.06L209,58v0h-.92q-.78-.21-.78-1.23V44.48h-4.11V57.86a9.43,9.43,0,0,0,.11,1.51,3.53,3.53,0,0,0,.37,1.11,2,2,0,0,0,.66.75,2.79,2.79,0,0,0,1,.42h0a8.23,8.23,0,0,0,1,.14c.39,0,.85.05,1.37.05h3c.56,0,1,0,1.39,0a5.8,5.8,0,0,0,.9-.11,1.67,1.67,0,0,0,1-.58,3.8,3.8,0,0,0,.72-1.28,2.76,2.76,0,0,0,2.71,2h15.54a12.63,12.63,0,0,0,2.43-.2h0A2.35,2.35,0,0,0,237,60.49a5.65,5.65,0,0,0,.48-2.63V48.59h-4.09Zm-11.72,1.23-5.73,0a1.08,1.08,0,0,1-.56-.44,1.6,1.6,0,0,1-.19-.82v-3c0-.78.35-1.2,1.06-1.26h4.71c.48.17.71.59.71,1.26Z" fill="#1c71bb"/><rect x="239.84" y="44.48" width="4.11" height="17.36" fill="#1c71bb"/><path d="M243.16,66h-1.52a1.73,1.73,0,0,1-.35,0s-.08-.16-.08-.38.06-.26.19-.26h2.54V63.87h-2.72a4.77,4.77,0,0,0-.72.05.85.85,0,0,0-.59.38,1.75,1.75,0,0,0-.18.91v1a1,1,0,0,0,.52.92,1.73,1.73,0,0,0,.9.24h1.62a.19.19,0,0,1,.19.09,2,2,0,0,1,0,.31c0,.18-.06.27-.19.28h-3.05v1.4H243a6.24,6.24,0,0,0,.71,0,.85.85,0,0,0,.6-.38,1.82,1.82,0,0,0,.18-.92v-.81a1.26,1.26,0,0,0-.42-1A1.28,1.28,0,0,0,243.16,66Z" fill="#1c71bb"/><path d="M256.25,57.27a2.5,2.5,0,0,0-1.67.64,2.41,2.41,0,0,0-.86,2,2.45,2.45,0,0,0,.86,2v0a2.61,2.61,0,0,0,1.67.62,2.49,2.49,0,0,0,1.66-.6,2.26,2.26,0,0,0,.66-.86,2.8,2.8,0,0,0,.21-1.1,2.57,2.57,0,0,0-2.53-2.6Z" fill="#1c71bb"/><rect x="260.98" y="44.48" width="4.11" height="17.36" fill="#1c71bb"/><path d="M265,39.59a1.32,1.32,0,0,0-.87-.29h-1.52a1.65,1.65,0,0,1-.35,0c-.06,0-.09-.16-.09-.38s.07-.26.19-.26h2.55V37.22h-2.72a4.91,4.91,0,0,0-.73.05.88.88,0,0,0-.59.37,1.93,1.93,0,0,0-.17.91v1a1,1,0,0,0,.52.92,1.73,1.73,0,0,0,.9.24h1.61c.11,0,.17,0,.19.09a1,1,0,0,1,0,.31c0,.18-.06.27-.19.28H260.7v1.4h3.22a6.12,6.12,0,0,0,.71,0,.87.87,0,0,0,.61-.38,1.86,1.86,0,0,0,.17-.92v-.82A1.28,1.28,0,0,0,265,39.59Z" fill="#1c71bb"/><path d="M118.17,91V76.85H125a4.9,4.9,0,0,1,3.2.94,3.21,3.21,0,0,1,1.15,2.63,3.1,3.1,0,0,1-1.29,2.68,3,3,0,0,1-.47.27,3.88,3.88,0,0,1,.88.47,3.05,3.05,0,0,1,1.36,2.71,4.07,4.07,0,0,1-1.34,3.29A6,6,0,0,1,124.57,91ZM121,79.28v3.1h3.38A2.67,2.67,0,0,0,126,82a1.44,1.44,0,0,0,.55-1.24,1.21,1.21,0,0,0-.57-1.09,3.4,3.4,0,0,0-1.75-.35Zm0,5.47v3.77h3.59a2.59,2.59,0,0,0,1.73-.5,1.87,1.87,0,0,0,.58-1.51,1.54,1.54,0,0,0-.59-1.32,3,3,0,0,0-1.77-.44Z" fill="#1c71bb"/><path d="M132.14,91V76.85h3V91Z" fill="#1c71bb"/><path d="M144,91.35a6.45,6.45,0,0,1-5-2A7.65,7.65,0,0,1,137.21,84a7.93,7.93,0,0,1,1.83-5.5,7.06,7.06,0,0,1,9.91,0,7.88,7.88,0,0,1,1.84,5.5A7.6,7.6,0,0,1,149,89.37,6.41,6.41,0,0,1,144,91.35Zm0-2.5a3.4,3.4,0,0,0,2.82-1.29,5.66,5.66,0,0,0,1-3.59,5.9,5.9,0,0,0-1-3.68,3.68,3.68,0,0,0-5.65,0,5.9,5.9,0,0,0-1,3.68,5.66,5.66,0,0,0,1,3.59A3.4,3.4,0,0,0,144,88.85Z" fill="#1c71bb"/><path d="M153.15,91V76.85h2.95V88.46h7V91Z" fill="#1c71bb"/><path d="M171.31,91.35a6.44,6.44,0,0,1-4.95-2A7.65,7.65,0,0,1,164.52,84a7.93,7.93,0,0,1,1.84-5.5,7.06,7.06,0,0,1,9.91,0A7.93,7.93,0,0,1,178.1,84a7.65,7.65,0,0,1-1.83,5.38A6.42,6.42,0,0,1,171.31,91.35Zm0-2.5a3.4,3.4,0,0,0,2.82-1.29,5.6,5.6,0,0,0,1-3.59,5.84,5.84,0,0,0-1-3.68,3.67,3.67,0,0,0-5.64,0,5.9,5.9,0,0,0-1,3.68,5.66,5.66,0,0,0,1,3.59A3.38,3.38,0,0,0,171.31,88.85Z" fill="#1c71bb"/><path d="M186.54,91.35a6.3,6.3,0,0,1-4.9-2A7.68,7.68,0,0,1,179.83,84a7.76,7.76,0,0,1,1.88-5.5,6.61,6.61,0,0,1,5.09-2A6.71,6.71,0,0,1,191,77.75a5,5,0,0,1,2,3.48h-3a2.36,2.36,0,0,0-1-1.62,3.3,3.3,0,0,0-2-.7,3.67,3.67,0,0,0-3,1.33,5.71,5.71,0,0,0-1.09,3.69,5.65,5.65,0,0,0,1,3.67,3.75,3.75,0,0,0,3,1.25,3.12,3.12,0,0,0,2.67-1.32,5,5,0,0,0,.77-1.73v0h-3.32V83.34H193V91h-2l-.28-1.82-.18.23A4.77,4.77,0,0,1,186.54,91.35Z" fill="#1c71bb"/><path d="M199.49,85.66l-4.92-8.81h3.51L201,83l2.75-6.12h3.34l-4.67,8.75V91h-2.95Z" fill="#1c71bb"/><path d="M212.68,88.49,220,79.35h-7.08v-2.5h10.8v2.33l-7.46,9.28h7.44V91h-11Z" fill="#224365"/><path d="M231.86,91.35a6.45,6.45,0,0,1-5-2A7.65,7.65,0,0,1,225.06,84a7.93,7.93,0,0,1,1.84-5.5,7.06,7.06,0,0,1,9.91,0,7.93,7.93,0,0,1,1.84,5.5,7.65,7.65,0,0,1-1.84,5.38A6.41,6.41,0,0,1,231.86,91.35Zm0-2.5a3.4,3.4,0,0,0,2.82-1.29,5.66,5.66,0,0,0,1-3.59,5.9,5.9,0,0,0-1-3.68,3.68,3.68,0,0,0-5.65,0A5.9,5.9,0,0,0,228,84a5.66,5.66,0,0,0,1,3.59A3.4,3.4,0,0,0,231.86,88.85Z" fill="#224365"/><path d="M243.61,91h-2.74V76.85H244l5.66,9.9v-9.9h2.76V91h-2.94L243.61,80.8Z" fill="#224365"/><path d="M255.22,91V76.85h10.39v2.5h-7.44v3h6.9v2.42h-6.9v3.68h7.77V91Z" fill="#224365"/></g></svg>