<svg xmlns="http://www.w3.org/2000/svg" viewBox="0 0 288 121.84"><g id="Clean_space" data-name="Clean space"><rect width="288" height="121.84" fill="none"/></g><g id="Logo_Artwork" data-name="Logo Artwork"><rect x="30.63" y="24.52" width="6.78" height="5.58" fill="#224365"/><path d="M116.6,48.82l-2.22-8.77a10.52,10.52,0,0,0-1.92-4.5,5.36,5.36,0,0,0-3.4-1.83,14.82,14.82,0,0,0-1.61-.21c-.62,0-1.31-.07-2.07-.07H92.16V39.9h12.68a4.42,4.42,0,0,1,1.94.32v0a3.37,3.37,0,0,1,1.45,2.22l0,0c.12.48.24,1,.39,1.54s.28,1.11.44,1.68.3,1.13.44,1.68.27,1.07.38,1.54h-21v.06H86.64a1.94,1.94,0,0,1-1.23-2.08V33.47H78.66V46.74A2.58,2.58,0,0,1,78.4,48a1.59,1.59,0,0,1-.85.7c-.11,0-.3,0-.57,0l-.84.06-.85,0-.67,0H72.88c-.8-.27-1.2-1-1.2-2.08V33.47H64.9V46.74a1.86,1.86,0,0,1-1.17,2l-.28.06a4.7,4.7,0,0,1-.67,0l-1.31,0-2.15,0a1.73,1.73,0,0,1-1-.73,2.71,2.71,0,0,1-.29-1.35V33.47H51.29V46.74a1.86,1.86,0,0,1-1.2,2h0a1.88,1.88,0,0,1-.52.1,6.51,6.51,0,0,1-.85,0v0H46.19V33.47H39.44v21c0,1.16-.43,1.83-1.29,2h-8c-.87-.21-1.31-.88-1.31-2v-21H22.06V63H38.75a19.31,19.31,0,0,0,4-.34l0,0a3.81,3.81,0,0,0,2.69-1.9,9.35,9.35,0,0,0,.79-4.34V55.26h4.44c.91,0,1.68,0,2.29,0a7.57,7.57,0,0,0,1.5-.19A2.67,2.67,0,0,0,56,54.09,6.32,6.32,0,0,0,57.24,52q1.34,3.29,4.47,3.28h2.57c.93,0,1.7,0,2.32,0A5.43,5.43,0,0,0,68,55.06a3,3,0,0,0,1.7-1A6.51,6.51,0,0,0,70.86,52a4.61,4.61,0,0,0,4.5,3.28H78c.91,0,1.67,0,2.27,0A7.56,7.56,0,0,0,81.77,55a2.74,2.74,0,0,0,1.65-.94A6.49,6.49,0,0,0,84.61,52a4.62,4.62,0,0,0,4.25,3.26v0h30.28V48.82Z" fill="#224365"/><path d="M152.13,54.49c0,1.16-.43,1.83-1.28,2h-8c-.87-.21-1.31-.88-1.31-2v-21h-6.78V63h16.72a19.13,19.13,0,0,0,4-.34l0,0a3.83,3.83,0,0,0,2.7-1.9,9.5,9.5,0,0,0,.78-4.34V33.47h-6.75Z" fill="#1c71bb"/><rect x="143.35" y="24.52" width="6.75" height="5.58" fill="#1c71bb"/><rect x="212.35" y="58.59" width="6.75" height="5.61" fill="#1c71bb"/><rect x="202.72" y="58.59" width="6.78" height="5.61" fill="#1c71bb"/><path d="M212.38,46.8a1.81,1.81,0,0,1-1.31,2h-11.2V39.93a8.34,8.34,0,0,0-.91-4.41,4.18,4.18,0,0,0-3-1.77,13.48,13.48,0,0,0-1.58-.21c-.58,0-1.2-.07-1.87-.07h-9.34c-.8,0-1.51,0-2.12.07a11.28,11.28,0,0,0-1.58.21,3.87,3.87,0,0,0-2.84,1.81,8.75,8.75,0,0,0-.87,4.37v6.81a1.85,1.85,0,0,1-1.21,2,7.19,7.19,0,0,1-.92.1l-1.31.07v-.06h-1.51c-.86-.23-1.29-.9-1.29-2V26.71h-6.75v22a14,14,0,0,0,.19,2.49,5.64,5.64,0,0,0,.6,1.82,3.48,3.48,0,0,0,1.08,1.23,4.64,4.64,0,0,0,1.64.69h0a13.08,13.08,0,0,0,1.69.23c.66.06,1.41.09,2.27.09h4.9c.91,0,1.67,0,2.28,0a7.55,7.55,0,0,0,1.48-.19,2.74,2.74,0,0,0,1.65-.94A6.68,6.68,0,0,0,181.7,52a4.51,4.51,0,0,0,4.44,3.28h25.55a20,20,0,0,0,4-.34l0,0a3.9,3.9,0,0,0,2.67-1.9,9.45,9.45,0,0,0,.78-4.33V33.47h-6.72Zm-19.26,2-9.43.06a1.8,1.8,0,0,1-.91-.73,2.5,2.5,0,0,1-.31-1.35V41.93c0-1.29.57-2,1.73-2.08H192a1.94,1.94,0,0,1,1.17,2.08Z" fill="#1c71bb"/><rect x="223.03" y="26.71" width="6.75" height="28.54" fill="#1c71bb"/><path d="M228.5,62H226a2.58,2.58,0,0,1-.57,0c-.09-.06-.14-.27-.14-.63s.1-.42.31-.42h4.19V58.59h-4.47a6.67,6.67,0,0,0-1.2.09,1.4,1.4,0,0,0-1,.61,3,3,0,0,0-.28,1.49v1.63a1.61,1.61,0,0,0,.85,1.51,2.85,2.85,0,0,0,1.48.4h2.65c.17,0,.28,0,.32.14a2.38,2.38,0,0,1,0,.51c0,.29-.11.44-.32.46h-5v2.31h5.3a8.57,8.57,0,0,0,1.17-.06,1.42,1.42,0,0,0,1-.63,3,3,0,0,0,.29-1.51V64.2a2.09,2.09,0,0,0-.69-1.71A2.12,2.12,0,0,0,228.5,62Z" fill="#1c71bb"/><path d="M250,47.74a4.11,4.11,0,0,0-2.74,1A3.93,3.93,0,0,0,245.85,52a4,4,0,0,0,1.42,3.22v0a4.3,4.3,0,0,0,2.74,1,4.11,4.11,0,0,0,2.73-1,3.48,3.48,0,0,0,1.08-1.41,4.56,4.56,0,0,0,.35-1.81,3.89,3.89,0,0,0-1.43-3.22A4,4,0,0,0,250,47.74Z" fill="#1c71bb"/><rect x="257.78" y="26.71" width="6.75" height="28.54" fill="#1c71bb"/><path d="M264.39,18.68A2.12,2.12,0,0,0,263,18.2h-2.51a2.58,2.58,0,0,1-.57,0c-.09-.06-.14-.27-.14-.63s.1-.43.31-.43h4.19V14.78h-4.47a7.9,7.9,0,0,0-1.2.08,1.41,1.41,0,0,0-1,.62,3,3,0,0,0-.28,1.49V18.6a1.62,1.62,0,0,0,.85,1.51,2.85,2.85,0,0,0,1.48.39h2.65c.17,0,.28.05.32.15a4.05,4.05,0,0,1,0,.51c0,.28-.1.44-.31.46h-5v2.3h5.3a10.75,10.75,0,0,0,1.16-.05,1.42,1.42,0,0,0,1-.63,3.07,3.07,0,0,0,.29-1.51V20.39A2.09,2.09,0,0,0,264.39,18.68Z" fill="#1c71bb"/><path d="M23,101V77.78H34.25a8.12,8.12,0,0,1,5.26,1.55,5.31,5.31,0,0,1,1.9,4.33,5.05,5.05,0,0,1-2.13,4.4,4.19,4.19,0,0,1-.78.45,6.4,6.4,0,0,1,1.45.76,5.08,5.08,0,0,1,2.24,4.47A6.68,6.68,0,0,1,40,99.15Q37.78,101,33.55,101Zm4.63-19.22v5.1H33.2a4.45,4.45,0,0,0,2.72-.69,2.41,2.41,0,0,0,.89-2,2,2,0,0,0-.94-1.79A5.58,5.58,0,0,0,33,81.78Zm0,9V97h5.9a4.26,4.26,0,0,0,2.84-.82,3.1,3.1,0,0,0,1-2.49,2.5,2.5,0,0,0-1-2.16,4.88,4.88,0,0,0-2.91-.72Z" fill="#1c71bb"/><path d="M46,101V77.78h4.85V101Z" fill="#1c71bb"/><path d="M65.47,101.63a10.58,10.58,0,0,1-8.14-3.26q-3-3.27-3-8.84t3-9a10.43,10.43,0,0,1,8.14-3.34,10.4,10.4,0,0,1,8.15,3.34q3,3.33,3,9t-3,8.84A10.55,10.55,0,0,1,65.47,101.63Zm0-4.12a5.59,5.59,0,0,0,4.64-2.12,9.29,9.29,0,0,0,1.68-5.9,9.66,9.66,0,0,0-1.68-6,6,6,0,0,0-9.27,0,9.66,9.66,0,0,0-1.68,6,9.29,9.29,0,0,0,1.67,5.9A5.58,5.58,0,0,0,65.47,97.51Z" fill="#1c71bb"/><path d="M80.52,101V77.78h4.85v19.1H96.91V101Z" fill="#1c71bb"/><path d="M110.38,101.63a10.58,10.58,0,0,1-8.14-3.26q-3-3.27-3-8.84t3-9a11.6,11.6,0,0,1,16.29,0q3,3.33,3,9t-3,8.84A10.56,10.56,0,0,1,110.38,101.63Zm0-4.12A5.61,5.61,0,0,0,115,95.39a9.29,9.29,0,0,0,1.68-5.9,9.66,9.66,0,0,0-1.68-6,6,6,0,0,0-9.28,0,9.66,9.66,0,0,0-1.67,6,9.29,9.29,0,0,0,1.67,5.9A5.58,5.58,0,0,0,110.38,97.51Z" fill="#1c71bb"/><path d="M135.41,101.63a10.39,10.39,0,0,1-8.06-3.26q-3-3.27-3-8.84t3.09-9a10.86,10.86,0,0,1,8.38-3.34,11.08,11.08,0,0,1,7,2.11A8.2,8.2,0,0,1,146,85h-4.86a3.9,3.9,0,0,0-1.7-2.67,5.45,5.45,0,0,0-3.35-1.14,6,6,0,0,0-4.94,2.18,9.32,9.32,0,0,0-1.79,6.08,9.31,9.31,0,0,0,1.7,6,6.14,6.14,0,0,0,5,2.05,5.15,5.15,0,0,0,4.4-2.16,8.24,8.24,0,0,0,1.27-2.85v0h-5.47v-4H146V101h-3.23l-.47-3-.29.39A7.85,7.85,0,0,1,135.41,101.63Z" fill="#1c71bb"/><path d="M156.7,92.27l-8.09-14.49h5.77l4.83,10.08,4.52-10.08h5.5l-7.68,14.4V101H156.7Z" fill="#1c71bb"/><path d="M178.38,96.93l12-15H178.78V77.78h17.75v3.83L184.28,96.88h12.21V101H178.38Z" fill="#224365"/><path d="M209.91,101.63a10.55,10.55,0,0,1-8.14-3.26q-3-3.27-3-8.84t3-9a11.6,11.6,0,0,1,16.29,0q3,3.33,3,9t-3,8.84A10.58,10.58,0,0,1,209.91,101.63Zm0-4.12a5.57,5.57,0,0,0,4.63-2.12,9.29,9.29,0,0,0,1.68-5.9,9.66,9.66,0,0,0-1.68-6,6,6,0,0,0-9.27,0,9.66,9.66,0,0,0-1.68,6,9.35,9.35,0,0,0,1.67,5.9A5.59,5.59,0,0,0,209.91,97.51Z" fill="#224365"/><path d="M229.24,101h-4.52V77.78h5.08l9.31,16.28V77.78h4.54V101h-4.83l-9.58-16.72Z" fill="#224365"/><path d="M248.32,101V77.78H265.4V81.9H253.16v4.94h11.35v4H253.16v6h12.78V101Z" fill="#224365"/></g></svg>