<svg xmlns="http://www.w3.org/2000/svg" viewBox="0 0 286.58 286.58"><g id="Clean_space" data-name="Clean space"><rect width="286.58" height="286.58" fill="none"/></g><g id="Logo_Artwork" data-name="Logo Artwork"><path d="M116,115.43a10.54,10.54,0,1,0-.16,21.07,10.54,10.54,0,0,0,.16-21.07Z" fill="#2375bc"/><path d="M142.28,154.18a6.08,6.08,0,0,0-6,5.86,6,6,0,0,0,11.95.09A6.06,6.06,0,0,0,142.28,154.18Z" fill="#2375bc"/><path d="M47.29,159.52l0,14.27Z" fill="#001c46"/><path d="M234.38,155.61a19.86,19.86,0,0,1-2.83-6C226.86,127.43,216,108.89,198,95c-7.36-5.66-15.7-10-24.47-15.56V53.24c5.09-4.53,4.43-11.2,4.29-17.76-.22-9.64-6.09-14.9-15.52-13.89-3,.32-4.85,1.83-4.86,4.77s1.91,4.52,4.9,4.66l5.37.25V45.61l-5,1.78c.95,16.61,1.92,33.39,2.86,49.7,28.71,12.38,44.72,33,48.89,62.36-4.92,7.5-5.92,15.45-6.08,23.5-.21,10.25.08,20.51-.1,30.76-.13,7.63-1.74,14.79-8.34,19.77L199,234l-1.75.87L182,237c-.09.29-.36,1.25-.95,3.29,6.18.15,11.9.67,17.58.3,4.47-.28,8.66-2,11.37-6.07,5.7-6.78,6.12-15,6.17-23.23l.06-.92,0-3.48q.17-8.48.31-16.94c2.44-.29,4.9-.44,7.3-.93a18.94,18.94,0,0,0,3.85-1.69l-.49-1.63H216.88c.49-1.82.79-2.9,1.08-4l9.86-.07L230,179.8c-.19-.37-.38-.74-.56-1.11H217.54c.58-1.84.94-3,1.31-4.2H230.9l-2.07-2.78-9.71-.67c.55-1.34.95-2.33,1.47-3.63H229l.27-1.65L221.07,164l4.35-8.16c12.45,10.91,9.73,31.42-5.6,44,.07,1.11.16,2.45.26,3.9C238.37,197.59,244.63,172.22,234.38,155.61Z" fill="#0358ad"/><path d="M193.44,232.88c-2.49-2-4.44-3.32-6.14-4.94-3-2.85-3-2.92-.28-5.71l8.91,10.14,3.88-2.28-12-10.62,3-3.06,10.25,11.69,1.93-3.23c.42-.57.83-1.14,1.25-1.7l-10.77-7.65,1.31-1.68c4.74-.27,6.05,5.65,10.16,7,1.71-5.09-4.12-5.8-4.91-9.47l2.6-1.34,3.27-1.6a12.53,12.53,0,0,0,.24-2.21,8.65,8.65,0,0,0-.42-1.75c-23.09,1.8-33.63,15.7-36.23,37.63-1.86-1.74-2.69-3.3-3.9-4.46a20.71,20.71,0,0,0-3.92-2.36l-.63,1c2.16,3.49,4.33,7,6.55,10.56l-3.35,4.5c-3.39-5.2-6.44-9.87-9.61-14.75l-2.8,1.43,9.93,15.83-4.9,3c-3.42-5.68-6.55-10.87-9.78-16.25l-2.71,1.55,9.49,16.21-6.7,1.62-7.73-14.15-2,2.68c1.91,3.75,3.67,7.19,5.42,10.64l-1.11,1.33-14.48-5.14L124.58,257c8.89,6.6,18.17,9.54,28.77,7.41,12.47-2.52,20-10.28,23.9-22.12,1.49-4.59,3.26-9.1,4.84-13.49C186.27,229.43,187,235.81,193.44,232.88Z" fill="#0358ad"/><path d="M135.45,236.59c-4.8,3.51-9.41,7.35-14.5,10.37-7.87,4.65-14.51,3-20.78-4.77l7-6.69c2.26,3.88-1.54,8.65,2.77,10.83l1.88-.24V233.81l1.76.1v12.94l3.85-1.26V233.71l1.26-.37c.51,1,1.33,2.07,1.45,3.16.23,2.05,0,4.16.09,6.23,0,.42.86.79,1.32,1.18.37-.29.75-.57,1.13-.85.12-.49.24-1,.37-1.46q.11-3.1.23-6.23l5.67,2.75,2.15-2c-8.09-9.21-17.83-8.53-27.78-5.46-22.41-11.37-37.43-37-36.38-65.1,1.31-35,19.88-57.89,53.44-70.05.64-10,1.3-20.26,2-30.57l0-13.37V47l-4.11-1.55a24.37,24.37,0,0,1-.59-4c.07-3.1.35-6.18.57-9.66a18.9,18.9,0,0,0,4.29-.77c2-.87,4.74-1.72,5.44-3.33s-.91-4-1.38-5.65c-11.32-1-17.08,2.05-18.07,10-1,7.72-2,15.86,4,21.47V77.65c-1.33.45-2.15.75-3,1C89.85,84.6,74.48,96.48,63.11,113.47c-9.32,13.9-15.2,29.11-15.82,46.05l0,14.27a42.43,42.43,0,0,0,.21,5.76c6,35.24,26.44,59.2,58.4,74.09,7.89,3.67,15.4,2.89,22.3-2.26,4.16-3.1,8.05-6.59,12-10,8.15-7.11,16.91-11.8,28.4-6.82.29-1.66.49-2.84.69-4C156.44,225.56,145.6,229.19,135.45,236.59Z" fill="#0f385d"/><path d="M109.67,156.56a11.12,11.12,0,0,0-11,8.56,11.71,11.71,0,0,0,5.24,12.67c4.63,2.76,9.79,2.06,14.16-1.93,3.25-3.1,4.28-6.75,2.69-11C118.9,159.12,115.39,156.48,109.67,156.56Z" fill="#0f385d"/><path d="M120.24,195.34a6.22,6.22,0,0,0,6,5.94,6,6,0,1,0-6-5.94Z" fill="#0f385d"/></g></svg>