<svg xmlns="http://www.w3.org/2000/svg" viewBox="0 0 287.91 127.27"><g id="Clean_space" data-name="Clean space"><rect width="287.91" height="127.27" fill="none"/></g><g id="Logo_Artwork" data-name="Logo Artwork"><path d="M236.51,82.71A5.15,5.15,0,0,0,235,79.17a5.53,5.53,0,0,0-3.53-1.46A5.05,5.05,0,0,0,228,79.17a5.14,5.14,0,0,0-1.46,3.54l0,1.76A5.21,5.21,0,0,0,228,88a3.84,3.84,0,0,0,1.61,1,3.77,3.77,0,0,0,1.93.43A5.1,5.1,0,0,0,235.08,88a5.19,5.19,0,0,0,1.46-3.54Z" fill="#fff"/><path d="M191.05,82a4.5,4.5,0,0,0-2.64-2.65,3.88,3.88,0,0,0-1.93-.43l-1.33.18a5.05,5.05,0,0,0-2.21,1.29l-.78,1a5,5,0,0,0-.68,2.52V84a3.77,3.77,0,0,0,.43,1.93,4.45,4.45,0,0,0,2.64,2.64,3.77,3.77,0,0,0,1.93.43l1.33-.18A5,5,0,0,0,190,87.54l.78-1a5,5,0,0,0,.68-2.52v-.12A3.72,3.72,0,0,0,191.05,82Z" fill="#fff"/><path d="M174.86,81.2a4.52,4.52,0,0,0-4.14-2.32c-4.94,0-6.09,5.89-3.45,8.63a4.54,4.54,0,0,0,4.15,2.31C176.36,89.82,177.51,83.93,174.86,81.2Z" fill="#fff"/><path d="M145.66,79.34a3.15,3.15,0,0,0-.52-.35L144,78.48a5.21,5.21,0,0,0-2.66,0l-1.2.51a5,5,0,0,0-1.79,1.79,5.32,5.32,0,0,0-.72,2.65,6.5,6.5,0,0,0,.09.73,6.81,6.81,0,0,0,.11.73,5.47,5.47,0,0,0,1.45,2.45l.53.4a5.34,5.34,0,0,0,.53.41l.07,0,.62.27.6.25,1.1.17a5.21,5.21,0,0,0,1.92.36C150.66,89.24,151,80.37,145.66,79.34Z" fill="#fff"/><path d="M141.69,88.74l-.08,0h0C141.39,88.67,141.35,88.67,141.69,88.74Z" fill="#fff"/><path d="M123.07,81.12c-6.44,0-6.45,10,0,10S129.51,81.12,123.07,81.12Z" fill="#fff"/><path d="M236.66,55.29c-6.44,0-6.45,10,0,10S243.1,55.29,236.66,55.29Z" fill="#fff"/><path d="M222.19,80.18c-6.44,0-6.45,10,0,10S228.63,80.18,222.19,80.18Z" fill="#fff"/><path d="M123.6,76.26c-6.44,0-6.45,10,0,10S130,76.26,123.6,76.26Z" fill="#fff"/><path d="M129.85,79.71c-4.54,0-4.55,7.05,0,7.05S134.4,79.71,129.85,79.71Z" fill="#fff"/><path d="M50.78,61.53A5.12,5.12,0,0,1,47.09,60a5.2,5.2,0,0,1-1.47-3.78,5.14,5.14,0,0,1,5.17-5A5.22,5.22,0,0,1,56,56.39,5.14,5.14,0,0,1,54.42,60a5.2,5.2,0,0,1-3.64,1.53Z" fill="#2375bc"/><path d="M50.79,51.93h.06a4.43,4.43,0,0,1-.07,8.85h0a4.43,4.43,0,0,1,0-8.85m0-1.5a5.93,5.93,0,1,0,0,11.85,5.93,5.93,0,0,0,.08-11.85Z" fill="#fff"/><path d="M61.83,73.87a3.17,3.17,0,0,1-3.23-3.21,3.24,3.24,0,0,1,5.6-2.18,3.16,3.16,0,0,1-2.33,5.39Z" fill="#2375bc"/><path d="M61.85,68.21h0a2.57,2.57,0,0,1,2.49,2.5,2.45,2.45,0,0,1-2.5,2.41h0a2.43,2.43,0,0,1-2.49-2.45,2.55,2.55,0,0,1,2.5-2.46m0-1.5a4.06,4.06,0,0,0-4,4,3.92,3.92,0,0,0,4,4h0a4,4,0,0,0,4-3.88A3.91,3.91,0,0,0,64.74,68a4.06,4.06,0,0,0-2.85-1.25Z" fill="#fff"/><path d="M22,77.2a.75.75,0,0,1-.75-.75v-6a.74.74,0,0,1,.75-.75h0a.75.75,0,0,1,.75.75v6a.76.76,0,0,1-.75.75Z" fill="#001c46"/><path d="M22,70.46c0,2,0,4,0,6,0-2,0-4,0-6" fill="#fff"/><path d="M83.77,105.31c-1.08,0-2.15,0-3.29-.09-.76,0-1.53-.07-2.32-.09a.74.74,0,0,1-.58-.31.75.75,0,0,1-.12-.65l.4-1.38a.76.76,0,0,1,.62-.53l6.28-.86.63-.31.31-.2c2.1-1.58,3.09-4,3.15-7.68,0-2.08,0-4.21,0-6.26s0-4.44,0-6.67c.07-3.23.42-6.68,2.52-10-1.78-12-8.34-20.3-20-25.34a.76.76,0,0,1-.45-.65L69.7,23.39a.76.76,0,0,1,.5-.75l1.6-.57V17.29l-1.54-.07a2.62,2.62,0,0,1-2.77-2.71,2.7,2.7,0,0,1,2.71-2.75,9,9,0,0,1,1-.06c3.82,0,6.24,2.54,6.33,6.63l0,.67c.08,2.54.15,5.17-1.81,7.13V36.41c1,.65,2.08,1.27,3.1,1.88a69.57,69.57,0,0,1,6.88,4.47,38.65,38.65,0,0,1,14.39,23.39,7.68,7.68,0,0,0,1.09,2.26,15.91,15.91,0,0,1,1.22,13.48,12.4,12.4,0,0,1-7.63,7.84,1,1,0,0,1-.24,0,.75.75,0,0,1-.41-.12.72.72,0,0,1-.33-.58l0-.66-.06,3.43,0,.41c0,3.65-.25,7.21-2.77,10.2a6.61,6.61,0,0,1-5.3,2.82C85,105.3,84.39,105.31,83.77,105.31ZM93.8,87A.55.55,0,0,1,94,86.8a16.09,16.09,0,0,0,3.17-3.5,4.4,4.4,0,0,1-.82.28,22,22,0,0,1-2.23.3l-.25,0Zm3.79-6.32a.75.75,0,0,1,.71.49,13.59,13.59,0,0,0,.49-1.29l-.48.41a.74.74,0,0,1-.49.18l-3.57,0,0,.18Zm.88-2.94a.74.74,0,0,1,.67.41l0,.09c0-.26.08-.52.11-.79a.58.58,0,0,1-.19,0H94.6l-.08.26Zm-.18-2.93a.72.72,0,0,1,.55.3l.5.67a10.75,10.75,0,0,0-.29-1.9.76.76,0,0,1-.74.62h-3l0,.1Zm.18-2.51A8.62,8.62,0,0,0,97,70.14l-.89,1.67Z" fill="#0358ad"/><path d="M71.21,12.45c3.41,0,5.5,2.17,5.58,5.89.07,2.76.34,5.56-1.79,7.46v11c3.68,2.32,7.18,4.16,10.27,6.53a37.82,37.82,0,0,1,14.11,23,8.44,8.44,0,0,0,1.19,2.5c4.31,7,1.68,17.64-6,20.2,0-.61-.07-1.17-.11-1.63,6.45-5.28,7.59-13.9,2.36-18.48L95,72.33l3.44.75-.11.69H94.78l-.62,1.53,4.08.28.87,1.17H94.05c-.16.49-.31,1-.55,1.76h5l.24.46-.89.77-4.14,0c-.13.46-.25.91-.46,1.68h4.37l.21.68a7.46,7.46,0,0,1-1.62.71c-1,.21-2,.27-3.07.39L93,90.35l0,1.46,0,.39c0,3.47-.2,6.91-2.59,9.76a5.94,5.94,0,0,1-4.78,2.55c-.6,0-1.2,0-1.8,0-1.8,0-3.64-.13-5.59-.18.25-.86.37-1.26.4-1.38l6.41-.88.73-.36.37-.23c2.78-2.09,3.45-5.1,3.51-8.31.08-4.3,0-8.61,0-12.92.07-3.38.49-6.72,2.55-9.87-1.75-12.36-8.47-21-20.54-26.2-.39-6.85-.8-13.91-1.2-20.89l2.1-.74v-6l-2.26-.1a1.88,1.88,0,0,1-2.05-2c0-1.24.79-1.87,2-2a7.5,7.5,0,0,1,.93-.06m0-1.5a10.23,10.23,0,0,0-1.09.06,3.43,3.43,0,0,0-3.38,3.5A3.35,3.35,0,0,0,70.22,18l.83,0v3.54l-1.1.39a1.52,1.52,0,0,0-1,1.5l1.21,20.88a1.48,1.48,0,0,0,.9,1.29c11.36,4.9,17.77,12.92,19.57,24.5a19.79,19.79,0,0,0-2.49,10.17c0,2.23,0,4.5,0,6.69s0,4.16,0,6.24c-.06,3.47-.92,5.6-2.86,7.09h0l-.23.14-.45.23L81.9,101l-3.52.48a1.51,1.51,0,0,0-1.24,1.07l-.4,1.38a1.5,1.5,0,0,0,1.4,1.92q1.19,0,2.31.09c1.14,0,2.22.09,3.32.09.68,0,1.3,0,1.89,0a7.43,7.43,0,0,0,5.89-3.15c2.62-3.16,2.86-6.82,2.89-10.61v-.41l0-1.33h.08a1.59,1.59,0,0,0,.48-.07,13.08,13.08,0,0,0,8.09-8.3A16.63,16.63,0,0,0,101.85,68a7.14,7.14,0,0,1-1-2A39.35,39.35,0,0,0,86.19,42.17a71.81,71.81,0,0,0-7-4.53c-.89-.53-1.81-1.08-2.73-1.65V26.43c2-2.16,1.88-5,1.81-7.45l0-.67c-.1-4.54-2.81-7.36-7.08-7.36ZM94.59,84.58l.69-.08c-.22.26-.46.51-.7.75v-.67Z" fill="#fff"/><path d="M63.71,115.57A16,16,0,0,1,54,112a.74.74,0,0,1,0-1.23l1.1-.71a.83.83,0,0,1,.43-.13,1,1,0,0,1,.24,0L61,111.85l-1.88-3.68a.75.75,0,0,1,.07-.79l.86-1.13a.75.75,0,0,1,.59-.29h.06a.74.74,0,0,1,.6.39l3,5.44,1.28-.31-3.48-5.94a.76.76,0,0,1,.28-1l1.13-.65a.75.75,0,0,1,.38-.1.75.75,0,0,1,.64.36l3.72,6.19.77-.47-3.77-6a.78.78,0,0,1-.09-.6.81.81,0,0,1,.38-.47l1.18-.6a.81.81,0,0,1,.34-.08.75.75,0,0,1,.63.34l3.45,5.3.46-.62-2.48-4a.74.74,0,0,1,0-.81l.26-.41a.76.76,0,0,1,.63-.33.75.75,0,0,1,.38.1c.15.09.32.17.49.26a5.19,5.19,0,0,1,1.29.84,5.68,5.68,0,0,1,.61.69c1.57-9.28,6.71-14.14,15.67-14.84h.06a.76.76,0,0,1,.73.56l0,.13a3.14,3.14,0,0,1,.16.75,3.38,3.38,0,0,1-.06.8,2.19,2.19,0,0,0,0,.27.75.75,0,0,1-.42.58l-1.37.67-.43.22a4.46,4.46,0,0,0,.58.56,2.87,2.87,0,0,1,1.2,3.33.72.72,0,0,1-.33.4.66.66,0,0,1,.06.2.7.7,0,0,1-.13.56l-.53.71-.77,1.3a.72.72,0,0,1-.43.34.61.61,0,0,1,0,.19.74.74,0,0,1-.36.57l-1.63,1a.75.75,0,0,1-.38.1.79.79,0,0,1-.42-.12.84.84,0,0,1-.32.27,3.82,3.82,0,0,1-1.59.39h0a3.37,3.37,0,0,1-2.42-1.25,7.23,7.23,0,0,0-.62-.55l-.38,1c-.47,1.27-1,2.59-1.39,3.9-1.77,5.44-5.34,8.74-10.6,9.8A15.19,15.19,0,0,1,63.71,115.57ZM80.63,98a7.22,7.22,0,0,0,.68.69h0l-.66-.75Zm2.68-1.29-1.07-1.22-.14.15Z" fill="#0358ad"/><path d="M88.53,89.36a3.08,3.08,0,0,1,.18.74,5.27,5.27,0,0,1-.1.93l-1.37.67-1.1.56c.34,1.54,2.79,1.84,2.07,4-1.69-.58-2.26-3-4.14-3h-.13l-.55.7,4.52,3.22-.52.71-.81,1.36-4.31-4.91L81,95.64l5,4.47-1.63,1c-1.29-1.47-2.52-2.86-3.74-4.26-1.13,1.17-1.15,1.2.11,2.4.72.68,1.54,1.25,2.58,2.08a3.07,3.07,0,0,1-1.28.32c-1.58,0-2-1.82-3.49-2-.66,1.85-1.4,3.74-2,5.67-1.62,5-4.8,8.24-10,9.29a13.92,13.92,0,0,1-2.82.29,15.36,15.36,0,0,1-9.27-3.4l1.12-.72,6.08,2.16.47-.56-2.28-4.47.85-1.12,3.25,5.94,2.82-.68-4-6.81,1.14-.65L68,111.34l2.06-1.25-4.18-6.65,1.18-.6,4,6.2c.54-.73.93-1.26,1.41-1.89l-2.76-4.44.27-.4a8.41,8.41,0,0,1,1.64,1c.51.48.86,1.14,1.65,1.87,1.09-9.21,5.51-15,15.21-15.81m0-1.5h-.11c-8.76.68-14.16,5.4-16.08,14a7.27,7.27,0,0,0-1.1-.66c-.15-.08-.31-.15-.46-.24a1.43,1.43,0,0,0-.75-.2,1.52,1.52,0,0,0-1.26.67l-.22.34,0,.07a1,1,0,0,0-.12.23l-.06-.1a1.53,1.53,0,0,0-1.26-.68,1.49,1.49,0,0,0-.68.17l-.7.35-.48.25a1.5,1.5,0,0,0-.76.93s0,0,0,.07a1.39,1.39,0,0,0-.53-.1,1.46,1.46,0,0,0-.75.2l-.64.37-.49.28a1.5,1.5,0,0,0-.71.91,1.52,1.52,0,0,0,0,.56,1.31,1.31,0,0,0-.47-.12h-.12a1.51,1.51,0,0,0-1.19.59l-.82,1.09a1.56,1.56,0,0,0-.17,1.62l1,2-3.46-1.22a1.43,1.43,0,0,0-.5-.09,1.47,1.47,0,0,0-.81.24l-1,.62-.16.1a1.53,1.53,0,0,0-.69,1.21,1.5,1.5,0,0,0,.61,1.25,16.73,16.73,0,0,0,10.16,3.7,16,16,0,0,0,3.12-.32c5.55-1.12,9.3-4.58,11.16-10.3.43-1.29.91-2.59,1.37-3.85a3.89,3.89,0,0,0,2.73,1.25,4.48,4.48,0,0,0,1.9-.46l.19-.1a1,1,0,0,0,.24,0,1.49,1.49,0,0,0,.76-.2l1.63-1a1.53,1.53,0,0,0,.7-1,1.59,1.59,0,0,0,.36-.41l.77-1.3.19-.25.29-.41a1.41,1.41,0,0,0,.29-1,1.47,1.47,0,0,0,.22-.41,3.44,3.44,0,0,0-1.2-3.94l.4-.19.44-.22a1.48,1.48,0,0,0,.83-1.16c0-.09,0-.17,0-.24a4.59,4.59,0,0,0,.07-1,3.61,3.61,0,0,0-.2-.94L90,89a1.52,1.52,0,0,0-1.45-1.12Z" fill="#fff"/><path d="M50.63,111.71a10.28,10.28,0,0,1-4.34-1C32.2,104.11,23.8,93.46,21.33,79a10.81,10.81,0,0,1-.1-1.78c0-.25,0-.5,0-.74v-6A37.19,37.19,0,0,1,28,50.69,36,36,0,0,1,47.93,35.76c.22-.06.43-.14.7-.23h0V26.21c-2.55-2.6-2.1-6.21-1.7-9.4.42-3.35,2.61-5,6.72-5,.52,0,1.09,0,1.69.08a.74.74,0,0,1,.65.54,5.06,5.06,0,0,0,.23.59,3.07,3.07,0,0,1,.32,2.29A3.84,3.84,0,0,1,54.31,17l-.43.18a4.62,4.62,0,0,1-1.39.3l-.05.64c-.06,1-.13,1.87-.15,2.77a5.42,5.42,0,0,0,.13,1l0,.16,1.33.5a.75.75,0,0,1,.48.7v7.56l-.83,12.89a.75.75,0,0,1-.49.66C38.89,49.36,31.51,59,31,73c-.41,11.11,5.45,21.72,14.61,26.52a16.83,16.83,0,0,1,4.82-.81,9.32,9.32,0,0,1,7.34,3.41.76.76,0,0,1,.19.55l.62-.47c3.37-2.45,6.56-3.65,9.75-3.65a14.27,14.27,0,0,1,5.19,1,.73.73,0,0,1,.46.82l-.29,1.67a.74.74,0,0,1-.38.54.75.75,0,0,1-.65,0,8.92,8.92,0,0,0-3.62-.81c-2.39,0-4.71,1.09-7.52,3.55l-.65.56c-1.42,1.25-2.88,2.53-4.43,3.68A9.54,9.54,0,0,1,50.63,111.71Zm-5.42-6.47A8.09,8.09,0,0,0,47,106.82a3.45,3.45,0,0,1-.37-2.3c0-.24,0-.48,0-.71Zm7,1.38a.49.49,0,0,1,0,.12l.49-.27-.12-.09a2.59,2.59,0,0,1-.36-.27ZM54.55,105a.88.88,0,0,1,0,.16l0,.13c.5-.35,1-.72,1.49-1.09l-1.38-.67Z" fill="#0f385d"/><path d="M53.67,12.59c.5,0,1,0,1.62.08.2.69.86,1.73.58,2.37s-1.45,1-2.28,1.4a8.43,8.43,0,0,1-1.81.33c-.09,1.46-.21,2.75-.24,4.05a10.75,10.75,0,0,0,.25,1.7l1.73.65v1.94c0,1.87,0,3.74,0,5.62l-.83,12.84C38.59,48.68,30.78,58.31,30.23,73c-.44,11.8,5.87,22.58,15.29,27.35a16.79,16.79,0,0,1,4.89-.86,8.59,8.59,0,0,1,6.78,3.16l-.9.83-2.39-1.16c0,.88-.06,1.75-.1,2.62l-.15.61-.47.36c-.2-.16-.55-.32-.56-.49,0-.87.06-1.76,0-2.62a4.63,4.63,0,0,0-.6-1.33l-.54.15v5l-1.61.52v-5.43l-.74,0v5.16l-.79.1c-1.81-.92-.21-2.92-1.16-4.55-1,1-2,1.9-3,2.81,1.65,2.06,3.36,3.09,5.23,3.09a6.9,6.9,0,0,0,3.5-1.09c2.14-1.26,4.07-2.88,6.09-4.35,2.9-2.12,5.94-3.51,9.3-3.51a13.29,13.29,0,0,1,4.92,1L72.94,102a9.7,9.7,0,0,0-3.92-.87c-3,0-5.58,1.61-8,3.74-1.64,1.43-3.28,2.9-5,4.2A8.8,8.8,0,0,1,50.63,111a9.46,9.46,0,0,1-4-1c-13.43-6.26-22-16.32-24.54-31.13A19.44,19.44,0,0,1,22,76.45c0-2,0-4,0-6a36.79,36.79,0,0,1,6.64-19.35A35.2,35.2,0,0,1,48.15,36.48c.35-.1.69-.23,1.25-.42V25.89c-2.55-2.36-2.11-5.78-1.7-9,.36-2.94,2.28-4.28,6-4.28m0-1.5h0c-4.49,0-7,1.88-7.46,5.59-.4,3.15-.88,7,1.69,9.82V35l-.19,0A36.82,36.82,0,0,0,27.37,50.27a38,38,0,0,0-6.9,20.13v6c0,.29,0,.53,0,.77a11.31,11.31,0,0,0,.11,1.9C23.11,93.84,31.65,104.68,46,111.36a11,11,0,0,0,4.66,1.1,10.27,10.27,0,0,0,6.24-2.21c1.57-1.17,3.05-2.46,4.48-3.71L62,106c2.67-2.33,4.84-3.37,7-3.37a8.27,8.27,0,0,1,3.32.74,1.38,1.38,0,0,0,.6.13,1.49,1.49,0,0,0,1.47-1.25l.17-1,.12-.72a1.48,1.48,0,0,0-.93-1.65,14.9,14.9,0,0,0-5.46-1.08c-3.33,0-6.63,1.22-10.09,3.72A10,10,0,0,0,50.41,98a17.27,17.27,0,0,0-4.74.75c-8.76-4.73-14.34-15-13.94-25.68C32.25,59.21,39.27,50,53.2,45a1.49,1.49,0,0,0,1-1.31L55,30.82a.28.28,0,0,0,0-.09V23.17a1.5,1.5,0,0,0-1-1.41l-.18-.07-.75-.28a3.17,3.17,0,0,1-.07-.55c0-.88.09-1.78.15-2.74v0a4.76,4.76,0,0,0,1-.28l.41-.17a4.45,4.45,0,0,0,2.66-2,3.67,3.67,0,0,0-.32-2.88l-.2-.5a1.51,1.51,0,0,0-1.31-1.09c-.62-.05-1.21-.08-1.75-.08Z" fill="#fff"/><path d="M48.16,79.58a5.48,5.48,0,0,1-2.81-.8,5.68,5.68,0,0,1-2.54-6.15,5.43,5.43,0,0,1,5.36-4.17h.1c2.69,0,4.41,1.31,5.26,4a4.77,4.77,0,0,1-1.32,5.4,6,6,0,0,1-4.05,1.72Z" fill="#0f385d"/><path d="M48.27,69.21c2.35,0,3.79,1.11,4.54,3.48a4,4,0,0,1-1.12,4.63,5.27,5.27,0,0,1-3.53,1.51,4.66,4.66,0,0,1-2.42-.7,4.94,4.94,0,0,1-2.21-5.32,4.69,4.69,0,0,1,4.65-3.6h.09m0-1.5h-.11a6.17,6.17,0,0,0-6.08,4.73,6.44,6.44,0,0,0,2.89,7,6.09,6.09,0,0,0,3.19.91,6.77,6.77,0,0,0,4.54-1.9,5.49,5.49,0,0,0,1.53-6.23,5.81,5.81,0,0,0-6-4.49Z" fill="#fff"/><path d="M55.13,88.75a3.38,3.38,0,0,1-3.26-3.23,3.13,3.13,0,0,1,.92-2.27,3.24,3.24,0,1,1,2.37,5.5Z" fill="#0f385d"/><path d="M55.13,83a2.51,2.51,0,0,1,0,5h0a2.61,2.61,0,0,1-2.51-2.49A2.53,2.53,0,0,1,55.1,83h0m0-1.5h-.05a4,4,0,0,0-2.83,1.23,3.9,3.9,0,0,0-1.13,2.81,4.1,4.1,0,0,0,4,4,4,4,0,0,0,0-8Z" fill="#fff"/><rect x="121.96" y="42.4" width="5.62" height="4.9" rx="0.75" fill="#224365"/><path d="M126.83,43.15v3.39h-4.12V43.15h4.12m0-1.5h-4.12a1.5,1.5,0,0,0-1.5,1.5v3.39a1.5,1.5,0,0,0,1.5,1.5h4.12a1.5,1.5,0,0,0,1.5-1.5V43.15a1.5,1.5,0,0,0-1.5-1.5Z" fill="#fff"/><path d="M117.49,67.27a.75.75,0,0,1-.75-.75V48.59a.75.75,0,0,1,.75-.75h4.13a.75.75,0,0,1,.75.75V61.38c0,.35.07.44.15.48h4.66c.06,0,.13-.13.13-.48V48.59a.75.75,0,0,1,.75-.75h4.11a.74.74,0,0,1,.75.75v8.59h.81a.76.76,0,0,1,.21,0l.23,0h.12c.09,0,.23-.08.23-.51V48.59a.75.75,0,0,1,.75-.75h4.13a.75.75,0,0,1,.75.75V56.7a1,1,0,0,0,.07.44.26.26,0,0,0,.09.07h1.93l.33,0c.1,0,.24-.08.24-.51V48.59a.74.74,0,0,1,.75-.75h4.12a.75.75,0,0,1,.75.75V56.7c0,.34.07.46.14.51h1.27l.5,0,.71,0s0,0,.06-.06a.74.74,0,0,0,.07-.41V48.59a.74.74,0,0,1,.75-.75H156a.74.74,0,0,1,.75.75V56.7c0,.33.08.46.16.51h1a.78.78,0,0,1,.22,0h11.81l-.54-2-.23-.94a.5.5,0,0,1,0-.12,1.31,1.31,0,0,0-.42-.69l0,0a1.87,1.87,0,0,0-.83-.11h-7.71a.75.75,0,0,1-.75-.75V48.57a.76.76,0,0,1,.75-.75h8c.48,0,.92,0,1.31,0a9.25,9.25,0,0,1,1.08.14,4,4,0,0,1,2.49,1.36,7.15,7.15,0,0,1,1.33,3.06l1.2,4.75h1a.75.75,0,0,1,.75.75v3.91a.75.75,0,0,1-.75.75H158a3.38,3.38,0,0,1-2.38-1.2l-.21.25a2.44,2.44,0,0,1-1.45.82,5.74,5.74,0,0,1-1,.12l-1.42,0h-1.61a3.44,3.44,0,0,1-2.71-1.21l-.21.26a2.54,2.54,0,0,1-1.41.81,4.3,4.3,0,0,1-1,.13h-3a3.4,3.4,0,0,1-2.69-1.21,2.66,2.66,0,0,1-1.63,1.07,6,6,0,0,1-1,.12l-1.43,0h-2a6.32,6.32,0,0,1-.56,2.94,3,3,0,0,1-2.14,1.53.44.44,0,0,1-.16,0,12.79,12.79,0,0,1-2.41.19Z" fill="#224365"/><path d="M168.18,48.57c.46,0,.88,0,1.26,0s.7.08,1,.13a3.3,3.3,0,0,1,2.07,1.11,6.62,6.62,0,0,1,1.17,2.74L175,57.93h1.54v3.91H158.13a2.78,2.78,0,0,1-2.58-2,4,4,0,0,1-.73,1.28,1.64,1.64,0,0,1-1,.58,5.8,5.8,0,0,1-.9.11c-.37,0-.83,0-1.38,0h-1.61a2.8,2.8,0,0,1-2.74-2,3.82,3.82,0,0,1-.74,1.28,1.76,1.76,0,0,1-1,.59,2.92,2.92,0,0,1-.82.11h-3a2.81,2.81,0,0,1-2.73-2,3.8,3.8,0,0,1-.72,1.28,1.65,1.65,0,0,1-1,.58,6,6,0,0,1-.91.11c-.38,0-.84,0-1.4,0h-2.7v.7a5.75,5.75,0,0,1-.48,2.64,2.29,2.29,0,0,1-1.63,1.15v0a11.63,11.63,0,0,1-2.42.21H117.49V48.59h4.13V61.38c0,.69.26,1.1.8,1.23h4.86q.78-.18.78-1.23V48.59h4.11v9.34h1.56v0l.52,0,.31-.06h0a1.15,1.15,0,0,0,.72-1.22V48.59h4.13V56.7a1.61,1.61,0,0,0,.18.82,1,1,0,0,0,.58.44h2.1l.41,0,.18,0a1.16,1.16,0,0,0,.71-1.22V48.59h4.12V56.7c0,.68.24,1.1.73,1.26h1.46l.52,0,.51,0,.35,0a.94.94,0,0,0,.52-.43,1.64,1.64,0,0,0,.16-.77V48.59H156V56.7a1.17,1.17,0,0,0,.75,1.26h1.35v0H170.9c-.07-.29-.15-.6-.23-.94l-.27-1q-.14-.53-.27-1c-.09-.34-.17-.65-.23-.94v0a2,2,0,0,0-.88-1.35h0a2.81,2.81,0,0,0-1.18-.19h-7.71V48.57h8m0-1.5h-8a1.5,1.5,0,0,0-1.5,1.5V52.5a1.5,1.5,0,0,0,1.5,1.5h7.71a3.17,3.17,0,0,1,.47,0,1.72,1.72,0,0,1,.09.19l0,.14q.1.45.24,1c.08.34.17.69.27,1l0,.07H158.13a1.66,1.66,0,0,0-.32,0h-.28V48.59a1.5,1.5,0,0,0-1.5-1.5h-4.1a1.5,1.5,0,0,0-1.5,1.5v7.83h-.13l-.48,0h-.64V48.59a1.5,1.5,0,0,0-1.5-1.5h-4.12a1.5,1.5,0,0,0-1.5,1.5v7.85H140.9V48.59a1.5,1.5,0,0,0-1.5-1.5h-4.13a1.5,1.5,0,0,0-1.5,1.5v7.84h-.1V48.59a1.5,1.5,0,0,0-1.5-1.5h-4.11a1.5,1.5,0,0,0-1.5,1.5V61.11h-3.44V48.59a1.5,1.5,0,0,0-1.5-1.5h-4.13a1.5,1.5,0,0,0-1.5,1.5V66.52a1.5,1.5,0,0,0,1.5,1.5h10.16a14,14,0,0,0,2.5-.19l.24,0A3.81,3.81,0,0,0,133,65.89a6.36,6.36,0,0,0,.63-2.55h1.22c.59,0,1.07,0,1.47,0a6.69,6.69,0,0,0,1.14-.14,3.08,3.08,0,0,0,1.48-.73,4.13,4.13,0,0,0,2.66.89h3a5.26,5.26,0,0,0,1.14-.15,3.16,3.16,0,0,0,1.47-.74,4.19,4.19,0,0,0,2.68.9h1.61c.58,0,1.06,0,1.45,0a6.43,6.43,0,0,0,1.13-.14,3.14,3.14,0,0,0,1.51-.73,4.1,4.1,0,0,0,2.25.87,1.1,1.1,0,0,0,.26,0h18.42a1.5,1.5,0,0,0,1.5-1.5V57.93a1.5,1.5,0,0,0-1.5-1.5h-.38l-1.06-4.21a7.92,7.92,0,0,0-1.47-3.33,4.72,4.72,0,0,0-2.95-1.62,8.79,8.79,0,0,0-1.14-.15c-.41,0-.88,0-1.37,0Z" fill="#fff"/><path d="M186.05,67.27a.74.74,0,0,1-.75-.75V48.59a.74.74,0,0,1,.75-.75h4.12a.75.75,0,0,1,.75.75V61.38c0,.34.08.44.16.48h4.65c.06,0,.14-.13.14-.48V48.59a.74.74,0,0,1,.75-.75h4.1a.74.74,0,0,1,.75.75V62.54a6.39,6.39,0,0,1-.56,3,3,3,0,0,1-2.14,1.53.41.41,0,0,1-.16,0,12.71,12.71,0,0,1-2.39.19Z" fill="#1c71bb"/><path d="M200.72,48.59V62.54a5.91,5.91,0,0,1-.47,2.64,2.33,2.33,0,0,1-1.64,1.15l0,0a11.66,11.66,0,0,1-2.41.21H186.05V48.59h4.12V61.38c0,.69.27,1.1.8,1.23h4.87q.78-.18.78-1.23V48.59h4.1m0-1.5h-4.1a1.5,1.5,0,0,0-1.5,1.5V61.11h-3.45V48.59a1.5,1.5,0,0,0-1.5-1.5h-4.12a1.5,1.5,0,0,0-1.5,1.5V66.52a1.5,1.5,0,0,0,1.5,1.5h10.17a13.75,13.75,0,0,0,2.48-.19l.24,0a3.81,3.81,0,0,0,2.63-1.91,7.12,7.12,0,0,0,.65-3.35V48.59a1.5,1.5,0,0,0-1.5-1.5Z" fill="#fff"/><rect x="190.53" y="42.4" width="5.61" height="4.9" rx="0.75" fill="#1c71bb"/><path d="M195.39,43.15v3.39h-4.11V43.15h4.11m0-1.5h-4.11a1.5,1.5,0,0,0-1.5,1.5v3.39a1.5,1.5,0,0,0,1.5,1.5h4.11a1.5,1.5,0,0,0,1.5-1.5V43.15a1.5,1.5,0,0,0-1.5-1.5Z" fill="#fff"/><rect x="232.5" y="63.12" width="5.61" height="4.91" rx="0.75" fill="#1c71bb"/><path d="M237.36,63.87v3.42h-4.11V63.87h4.11m0-1.5h-4.11a1.5,1.5,0,0,0-1.5,1.5v3.42a1.5,1.5,0,0,0,1.5,1.5h4.11a1.51,1.51,0,0,0,1.5-1.5V63.87a1.5,1.5,0,0,0-1.5-1.5Z" fill="#fff"/><rect x="226.64" y="63.12" width="5.62" height="4.91" rx="0.75" fill="#1c71bb"/><path d="M231.52,63.87v3.42h-4.13V63.87h4.13m0-1.5h-4.13a1.5,1.5,0,0,0-1.5,1.5v3.42a1.5,1.5,0,0,0,1.5,1.5h4.13a1.51,1.51,0,0,0,1.5-1.5V63.87a1.5,1.5,0,0,0-1.5-1.5Z" fill="#fff"/><path d="M217.31,62.59a3.36,3.36,0,0,1-2.68-1.2,1.59,1.59,0,0,1-.2.24,2.38,2.38,0,0,1-1.45.82,5.61,5.61,0,0,1-1,.12l-1.42,0h-3c-.54,0-1,0-1.44-.05s-.8-.09-1.11-.15l-.11,0a3.63,3.63,0,0,1-1.16-.52,2.84,2.84,0,0,1-.88-1,4.23,4.23,0,0,1-.45-1.34,9.91,9.91,0,0,1-.12-1.64V44.48a.76.76,0,0,1,.75-.75h4.11a.76.76,0,0,1,.75.75V56.7c0,.34.07.44.15.48h.79l.19,0,.57,0,.4,0c.1,0,.19-.14.19-.48V52.52a6,6,0,0,1,.63-3A3.11,3.11,0,0,1,213.11,48a7.14,7.14,0,0,1,1-.14c.39,0,.84,0,1.35,0h5.68c.43,0,.83,0,1.2,0a9.26,9.26,0,0,1,1,.15,3.21,3.21,0,0,1,2.33,1.4,5.76,5.76,0,0,1,.67,3.09v4.66h5.94c.09,0,.17-.14.17-.48V48.59a.74.74,0,0,1,.75-.75h4.09a.75.75,0,0,1,.75.75v9.27a6.38,6.38,0,0,1-.57,3,3.07,3.07,0,0,1-2.1,1.53.52.52,0,0,1-.17,0,13,13,0,0,1-2.42.19Zm-1.15-9.37c-.21,0-.34.05-.34.51v3a.7.7,0,0,0,.08.42.22.22,0,0,0,.08.09l4.82,0V53.73c0-.32-.07-.45-.13-.51Z" fill="#1c71bb"/><path d="M207.19,44.48V56.7q0,1,.78,1.23h.91v0l.8,0,.56-.06a1.13,1.13,0,0,0,.74-1.2V52.52a5.36,5.36,0,0,1,.53-2.66,2.37,2.37,0,0,1,1.72-1.1,7.16,7.16,0,0,1,1-.13c.37,0,.8,0,1.29,0h5.68c.4,0,.78,0,1.14,0a8.27,8.27,0,0,1,1,.13,2.52,2.52,0,0,1,1.83,1.08,5,5,0,0,1,.56,2.68v5.41h6.81a1.1,1.1,0,0,0,.8-1.23V48.59h4.09v9.27a5.65,5.65,0,0,1-.48,2.63,2.35,2.35,0,0,1-1.62,1.16h0a12.63,12.63,0,0,1-2.43.2H217.31a2.75,2.75,0,0,1-2.71-2,4,4,0,0,1-.72,1.28,1.67,1.67,0,0,1-1,.58,5.8,5.8,0,0,1-.9.11c-.37,0-.83,0-1.39,0h-3c-.52,0-1,0-1.38-.05a8.31,8.31,0,0,1-1-.14h0a2.93,2.93,0,0,1-1-.42,2.06,2.06,0,0,1-.65-.75,3.53,3.53,0,0,1-.37-1.11,9.43,9.43,0,0,1-.11-1.51V44.48h4.11M215.82,58l5.73,0v-4.2a1.18,1.18,0,0,0-.71-1.26h-4.71c-.71.06-1.06.48-1.06,1.26v3a1.51,1.51,0,0,0,.19.82,1.08,1.08,0,0,0,.56.44m-8.63-15h-4.11a1.5,1.5,0,0,0-1.5,1.5V57.86a10.4,10.4,0,0,0,.13,1.77,5,5,0,0,0,.53,1.57,3.75,3.75,0,0,0,1.11,1.26,4.41,4.41,0,0,0,1.37.62l.18,0a10.28,10.28,0,0,0,1.19.17c.45,0,.95.05,1.51.05h3c.59,0,1.06,0,1.46,0a6.69,6.69,0,0,0,1.13-.14,3.1,3.1,0,0,0,1.49-.72,4.13,4.13,0,0,0,2.65.88h15.54a13.83,13.83,0,0,0,2.5-.19l.26,0a3.82,3.82,0,0,0,2.59-1.91,7,7,0,0,0,.66-3.34V48.59a1.5,1.5,0,0,0-1.5-1.5h-4.09a1.5,1.5,0,0,0-1.5,1.5v7.84h-4.61V52.52a6.42,6.42,0,0,0-.79-3.49,4,4,0,0,0-2.84-1.75,11,11,0,0,0-1.1-.14c-.39,0-.82,0-1.26,0h-5.68c-.52,0-1,0-1.41,0a8.18,8.18,0,0,0-1.13.15,3.77,3.77,0,0,0-2.73,1.81,6.63,6.63,0,0,0-.74,3.42v3.91l-.35,0a1,1,0,0,0-.25,0h-.19v-12a1.5,1.5,0,0,0-1.5-1.5Zm9.38,11h3.48v2.47l-3.48,0V54Z" fill="#fff"/><rect x="239" y="43.73" width="5.61" height="18.86" rx="0.75" fill="#1c71bb"/><path d="M243.85,44.48V61.84h-4.1V44.48h4.1m0-1.5h-4.1a1.5,1.5,0,0,0-1.5,1.5V61.84a1.5,1.5,0,0,0,1.5,1.5h4.1a1.5,1.5,0,0,0,1.5-1.5V44.48a1.5,1.5,0,0,0-1.5-1.5Z" fill="#fff"/><path d="M239.64,70.18a.75.75,0,0,1-.75-.75V68a.77.77,0,0,1,.41-.67,1.79,1.79,0,0,1-.41-1.17v-1a2.46,2.46,0,0,1,.28-1.3,1.59,1.59,0,0,1,1.08-.72,4.76,4.76,0,0,1,.88-.07h2.72a.75.75,0,0,1,.75.75v1.42a.73.73,0,0,1-.13.43,2,2,0,0,1,.64,1.57v.81a2.51,2.51,0,0,1-.28,1.3,1.59,1.59,0,0,1-1.11.73,5,5,0,0,1-.85.05Z" fill="#1c71bb"/><path d="M243.85,63.87v1.42h-2.54c-.13,0-.19.09-.19.26s0,.35.08.38a1.73,1.73,0,0,0,.35,0h1.52a1.28,1.28,0,0,1,.87.3,1.26,1.26,0,0,1,.42,1v.81a1.82,1.82,0,0,1-.18.92.87.87,0,0,1-.6.38,6.37,6.37,0,0,1-.71,0h-3.23V68h3.05c.13,0,.19-.1.19-.28a2,2,0,0,0,0-.31c0-.06-.09-.09-.2-.09h-1.61a1.73,1.73,0,0,1-.9-.24,1,1,0,0,1-.52-.92v-1a1.75,1.75,0,0,1,.18-.91.85.85,0,0,1,.58-.38,4.91,4.91,0,0,1,.73-.05h2.72m0-1.5h-2.72a5.75,5.75,0,0,0-1,.08,2.33,2.33,0,0,0-1.61,1.07,3.2,3.2,0,0,0-.39,1.69v1a2.64,2.64,0,0,0,.22,1.06,1.5,1.5,0,0,0-.22.78v1.4a1.5,1.5,0,0,0,1.5,1.5h3.23a5.81,5.81,0,0,0,.92-.05h.08a2.33,2.33,0,0,0,1.61-1.09,3.34,3.34,0,0,0,.38-1.68v-.81a2.88,2.88,0,0,0-.53-1.74,1.1,1.1,0,0,0,0-.26V63.87a1.5,1.5,0,0,0-1.5-1.5Z" fill="#fff"/><path d="M256.16,63.18a3.33,3.33,0,0,1-2-.69.55.55,0,0,1-.14-.09,3.15,3.15,0,0,1-1.13-2.53A3.11,3.11,0,0,1,254,57.33a3.22,3.22,0,0,1,2.14-.81,3.14,3.14,0,0,1,2.16.83,3.07,3.07,0,0,1,1.12,2.52,3.52,3.52,0,0,1-.27,1.39,3,3,0,0,1-.88,1.15A3.19,3.19,0,0,1,256.16,63.18Z" fill="#1c71bb"/><path d="M256.16,57.27a2.57,2.57,0,0,1,2.53,2.6,2.8,2.8,0,0,1-.21,1.1,2.26,2.26,0,0,1-.66.86,2.49,2.49,0,0,1-1.66.6,2.61,2.61,0,0,1-1.67-.62v0a2.45,2.45,0,0,1-.86-2,2.41,2.41,0,0,1,.86-2,2.48,2.48,0,0,1,1.67-.64m0-1.5a4,4,0,0,0-2.65,1,4.16,4.16,0,0,0,0,6.21,1.14,1.14,0,0,0,.23.15,4,4,0,0,0,5-.16,3.5,3.5,0,0,0,1.07-1.42,4.23,4.23,0,0,0,.33-1.68,4.07,4.07,0,0,0-4-4.1Z" fill="#fff"/><rect x="260.14" y="43.73" width="5.61" height="18.86" rx="0.75" fill="#1c71bb"/><path d="M265,44.48V61.84h-4.1V44.48H265m0-1.5h-4.1a1.5,1.5,0,0,0-1.5,1.5V61.84a1.5,1.5,0,0,0,1.5,1.5H265a1.5,1.5,0,0,0,1.5-1.5V44.48A1.5,1.5,0,0,0,265,43Z" fill="#fff"/><path d="M260.61,43.53a.75.75,0,0,1-.75-.75v-1.4a.75.75,0,0,1,.41-.67,1.74,1.74,0,0,1-.41-1.17v-1a2.45,2.45,0,0,1,.28-1.29,1.56,1.56,0,0,1,1.08-.72,4.69,4.69,0,0,1,.88-.07h2.72a.76.76,0,0,1,.75.75v1.42a.75.75,0,0,1-.13.42,2,2,0,0,1,.63,1.57v.82a2.65,2.65,0,0,1-.27,1.3,1.59,1.59,0,0,1-1.11.73,5.16,5.16,0,0,1-.86.05Z" fill="#1c71bb"/><path d="M264.82,37.22v1.42h-2.55c-.12,0-.19.09-.19.26s0,.35.09.38a1.65,1.65,0,0,0,.35,0H264a1.2,1.2,0,0,1,1.28,1.33v.82a1.86,1.86,0,0,1-.17.92.89.89,0,0,1-.61.38,6.24,6.24,0,0,1-.71,0h-3.22v-1.4h3.05c.13,0,.19-.1.19-.28a1.51,1.51,0,0,0,0-.31c0-.06-.08-.09-.19-.09H262a1.73,1.73,0,0,1-.9-.24,1,1,0,0,1-.52-.92v-1a1.93,1.93,0,0,1,.17-.91.88.88,0,0,1,.59-.37,4.91,4.91,0,0,1,.73-.05h2.72m0-1.5H262.1a4.9,4.9,0,0,0-1,.08,2.33,2.33,0,0,0-1.61,1.07,3.19,3.19,0,0,0-.39,1.68v1a2.48,2.48,0,0,0,.22,1.06,1.5,1.5,0,0,0-.22.78v1.4a1.5,1.5,0,0,0,1.5,1.5h3.22a5.87,5.87,0,0,0,.93-.05h.08a2.28,2.28,0,0,0,1.6-1.09,3.24,3.24,0,0,0,.38-1.68v-.82a2.85,2.85,0,0,0-.52-1.73,2.11,2.11,0,0,0,0-.26V37.22a1.5,1.5,0,0,0-1.5-1.5Z" fill="#fff"/><path d="M118.08,91.72a.75.75,0,0,1-.75-.75V76.85a.74.74,0,0,1,.75-.75h6.83a5.62,5.62,0,0,1,3.67,1.11A3.93,3.93,0,0,1,130,80.42a3.89,3.89,0,0,1-1.1,2.87,3.8,3.8,0,0,1,1.58,3.26,4.79,4.79,0,0,1-1.61,3.87,6.71,6.71,0,0,1-4.4,1.3Zm6.4-4a1.92,1.92,0,0,0,1.24-.32c.08-.07.32-.27.32-.94a.77.77,0,0,0-.29-.72,2.24,2.24,0,0,0-1.32-.29h-2.79v2.27Zm-.21-6.14a2,2,0,0,0,1.2-.26.71.71,0,0,0,.25-.65.47.47,0,0,0-.22-.45,2.63,2.63,0,0,0-1.35-.25h-2.51v1.61Z" fill="#1c71bb"/><path d="M124.91,76.85a4.92,4.92,0,0,1,3.2.94,3.21,3.21,0,0,1,1.15,2.63A3.1,3.1,0,0,1,128,83.1a3,3,0,0,1-.47.27,3.88,3.88,0,0,1,.88.47,3.05,3.05,0,0,1,1.36,2.71,4.07,4.07,0,0,1-1.34,3.29A6,6,0,0,1,124.48,91h-6.4V76.85h6.83m-4,5.53h3.38a2.67,2.67,0,0,0,1.65-.42,1.44,1.44,0,0,0,.55-1.24,1.21,1.21,0,0,0-.57-1.09,3.4,3.4,0,0,0-1.75-.35h-3.26v3.1m0,6.14h3.59a2.61,2.61,0,0,0,1.73-.5,1.87,1.87,0,0,0,.58-1.51,1.54,1.54,0,0,0-.59-1.32,3,3,0,0,0-1.77-.44h-3.54v3.77m4-13.17h-6.83a1.5,1.5,0,0,0-1.5,1.5V91a1.5,1.5,0,0,0,1.5,1.5h6.4A7.41,7.41,0,0,0,129.36,91a5.48,5.48,0,0,0,1.88-4.44A4.64,4.64,0,0,0,130,83.2a4.8,4.8,0,0,0,.81-2.78,4.72,4.72,0,0,0-1.7-3.79,6.39,6.39,0,0,0-4.15-1.28Zm-2.52,5.43h1.76a3.66,3.66,0,0,1,.69,0,3.19,3.19,0,0,1-.57,0h-1.88v-.1Zm0,5.47h2a1.94,1.94,0,0,1,.85.13s0,.07,0,.13a.71.71,0,0,1-.06.37,1.33,1.33,0,0,1-.75.14h-2.09v-.77Z" fill="#fff"/><rect x="131.3" y="76.1" width="4.45" height="15.62" rx="0.75" fill="#1c71bb"/><path d="M135,76.85V91h-2.94V76.85H135m0-1.5h-2.94a1.5,1.5,0,0,0-1.5,1.5V91a1.5,1.5,0,0,0,1.5,1.5H135a1.5,1.5,0,0,0,1.5-1.5V76.85a1.5,1.5,0,0,0-1.5-1.5Z" fill="#fff"/><path d="M143.9,92.1a7.19,7.19,0,0,1-5.5-2.22,8.4,8.4,0,0,1-2-5.89,8.64,8.64,0,0,1,2-6,7.8,7.8,0,0,1,11,0,8.68,8.68,0,0,1,2,6,8.4,8.4,0,0,1-2,5.89A7.17,7.17,0,0,1,143.9,92.1Zm0-12.38a2.6,2.6,0,0,0-2.22,1,5.17,5.17,0,0,0-.87,3.22,5,5,0,0,0,.86,3.12,2.64,2.64,0,0,0,2.23,1,2.67,2.67,0,0,0,2.24-1A5,5,0,0,0,147,84a5.17,5.17,0,0,0-.87-3.22A2.6,2.6,0,0,0,143.9,79.72Z" fill="#1c71bb"/><path d="M143.9,76.46a6.35,6.35,0,0,1,5,2A7.93,7.93,0,0,1,150.7,84a7.65,7.65,0,0,1-1.84,5.38,7.19,7.19,0,0,1-9.91,0A7.65,7.65,0,0,1,137.11,84a7.93,7.93,0,0,1,1.84-5.5,6.37,6.37,0,0,1,5-2m0,12.39a3.43,3.43,0,0,0,2.83-1.29,5.66,5.66,0,0,0,1-3.59,5.9,5.9,0,0,0-1-3.68,3.68,3.68,0,0,0-5.65,0,5.9,5.9,0,0,0-1,3.68,5.66,5.66,0,0,0,1,3.59,3.4,3.4,0,0,0,2.82,1.29m0-13.89a7.84,7.84,0,0,0-6.06,2.52A9.39,9.39,0,0,0,135.61,84a9.12,9.12,0,0,0,2.24,6.4,8.67,8.67,0,0,0,12.11,0A9.08,9.08,0,0,0,152.2,84a9.39,9.39,0,0,0-2.22-6.5A7.83,7.83,0,0,0,143.9,75Zm0,12.39a1.89,1.89,0,0,1-1.64-.72,4.29,4.29,0,0,1-.7-2.66,4.51,4.51,0,0,1,.71-2.76,2.18,2.18,0,0,1,3.27,0,4.51,4.51,0,0,1,.71,2.76,4.29,4.29,0,0,1-.7,2.66,1.91,1.91,0,0,1-1.65.72Z" fill="#fff"/><path d="M153.06,91.72a.75.75,0,0,1-.75-.75V76.85a.74.74,0,0,1,.75-.75H156a.75.75,0,0,1,.75.75V87.71H163a.76.76,0,0,1,.75.75V91a.76.76,0,0,1-.75.75Z" fill="#1c71bb"/><path d="M156,76.85V88.46h7V91h-10V76.85H156m0-1.5h-2.95a1.5,1.5,0,0,0-1.5,1.5V91a1.5,1.5,0,0,0,1.5,1.5h10a1.5,1.5,0,0,0,1.5-1.5V88.46A1.5,1.5,0,0,0,163,87h-5.52V76.85a1.5,1.5,0,0,0-1.5-1.5Z" fill="#fff"/><path d="M171.22,92.1a7.19,7.19,0,0,1-5.5-2.22,8.4,8.4,0,0,1-2-5.89,8.68,8.68,0,0,1,2-6,7.81,7.81,0,0,1,11,0,8.68,8.68,0,0,1,2,6,8.4,8.4,0,0,1-2,5.89A7.19,7.19,0,0,1,171.22,92.1Zm0-12.38a2.63,2.63,0,0,0-2.23,1,5.23,5.23,0,0,0-.86,3.22,5,5,0,0,0,.85,3.12,2.67,2.67,0,0,0,2.24,1,2.64,2.64,0,0,0,2.23-1,4.89,4.89,0,0,0,.86-3.12,5.23,5.23,0,0,0-.86-3.22A2.63,2.63,0,0,0,171.22,79.72Z" fill="#1c71bb"/><path d="M171.22,76.46a6.35,6.35,0,0,1,5,2A7.93,7.93,0,0,1,178,84a7.65,7.65,0,0,1-1.83,5.38,7.19,7.19,0,0,1-9.91,0A7.6,7.6,0,0,1,164.43,84a7.88,7.88,0,0,1,1.84-5.5,6.37,6.37,0,0,1,4.95-2m0,12.39A3.4,3.4,0,0,0,174,87.56a5.66,5.66,0,0,0,1-3.59,5.9,5.9,0,0,0-1-3.68,3.67,3.67,0,0,0-5.64,0,5.9,5.9,0,0,0-1,3.68,5.66,5.66,0,0,0,1,3.59,3.37,3.37,0,0,0,2.82,1.29m0-13.89a7.81,7.81,0,0,0-6.06,2.52A9.39,9.39,0,0,0,162.93,84a9.08,9.08,0,0,0,2.24,6.4,8.67,8.67,0,0,0,12.11,0A9.08,9.08,0,0,0,179.51,84a9.34,9.34,0,0,0-2.22-6.5A7.79,7.79,0,0,0,171.22,75Zm0,12.39a1.91,1.91,0,0,1-1.65-.72,4.29,4.29,0,0,1-.69-2.66,4.51,4.51,0,0,1,.71-2.76,2.17,2.17,0,0,1,3.26,0,4.44,4.44,0,0,1,.71,2.76,4.29,4.29,0,0,1-.69,2.66,1.93,1.93,0,0,1-1.65.72Z" fill="#fff"/><path d="M186.45,92.1A7.06,7.06,0,0,1,181,89.87,8.43,8.43,0,0,1,179,84a8.53,8.53,0,0,1,2.08-6,7.32,7.32,0,0,1,5.64-2.27,7.48,7.48,0,0,1,4.7,1.44,5.75,5.75,0,0,1,2.23,4,.76.76,0,0,1-.18.59.75.75,0,0,1-.56.25h-3a.76.76,0,0,1-.75-.66,1.63,1.63,0,0,0-.74-1.11,2.51,2.51,0,0,0-1.58-.55,2.93,2.93,0,0,0-2.43,1.06,6.17,6.17,0,0,0-.05,6.4,3,3,0,0,0,2.47,1,2.35,2.35,0,0,0,2.06-1,3.58,3.58,0,0,0,.34-.57H187a.75.75,0,0,1-.75-.75V83.34a.74.74,0,0,1,.75-.75h5.92a.75.75,0,0,1,.75.75V91a.76.76,0,0,1-.75.75h-2a.75.75,0,0,1-.74-.64l0-.26A5.52,5.52,0,0,1,186.45,92.1Z" fill="#1c71bb"/><path d="M186.71,76.46A6.71,6.71,0,0,1,191,77.75a5,5,0,0,1,2,3.48h-3a2.38,2.38,0,0,0-1-1.62,3.25,3.25,0,0,0-2-.7,3.66,3.66,0,0,0-3,1.33,6.89,6.89,0,0,0-.05,7.36,3.75,3.75,0,0,0,3.05,1.25,3.12,3.12,0,0,0,2.67-1.32,5,5,0,0,0,.77-1.73v0H187V83.34h5.92V91h-2l-.29-1.82-.17.23a4.79,4.79,0,0,1-4,2,6.3,6.3,0,0,1-4.9-2A7.68,7.68,0,0,1,179.74,84a7.76,7.76,0,0,1,1.88-5.5,6.61,6.61,0,0,1,5.09-2m0-1.5a8.06,8.06,0,0,0-6.19,2.51A9.24,9.24,0,0,0,178.24,84a9.19,9.19,0,0,0,2.2,6.39,7.77,7.77,0,0,0,6,2.47,6.48,6.48,0,0,0,3.37-.89,1.47,1.47,0,0,0,1.11.5h2a1.5,1.5,0,0,0,1.5-1.5V83.34a1.51,1.51,0,0,0-.44-1.06l.06-.06a1.45,1.45,0,0,0,.36-1.18,6.46,6.46,0,0,0-2.51-4.48,8.25,8.25,0,0,0-5.16-1.6Zm.15,12.39a2.24,2.24,0,0,1-1.9-.71,4.32,4.32,0,0,1-.69-2.71,4.26,4.26,0,0,1,.75-2.74,2.17,2.17,0,0,1,1.85-.78,1.82,1.82,0,0,1,1.13.39c.41.31.44.53.45.61a1.62,1.62,0,0,0,.12.43H187a1.5,1.5,0,0,0-1.5,1.5v2.43a1.5,1.5,0,0,0,1.5,1.5h.5a2.33,2.33,0,0,1-.62.08Z" fill="#fff"/><path d="M199.4,91.72a.76.76,0,0,1-.75-.75V85.85l-4.83-8.64a.73.73,0,0,1,0-.74.74.74,0,0,1,.65-.37H198a.73.73,0,0,1,.67.42l2.24,4.67L203,76.54a.75.75,0,0,1,.68-.44H207a.75.75,0,0,1,.66,1.1l-4.58,8.59V91a.76.76,0,0,1-.75.75Z" fill="#1c71bb"/><path d="M207,76.85l-4.67,8.75V91H199.4V85.66l-4.92-8.81H198L200.92,83l2.75-6.12H207m0-1.5h-3.35a1.48,1.48,0,0,0-1.36.88l-1.43,3.18-1.54-3.21a1.5,1.5,0,0,0-1.35-.85h-3.51a1.49,1.49,0,0,0-1.31,2.23l4.73,8.47V91a1.5,1.5,0,0,0,1.5,1.5h2.95a1.5,1.5,0,0,0,1.5-1.5V86l4.49-8.43a1.49,1.49,0,0,0-1.32-2.2Z" fill="#fff"/><path d="M212.58,91.72a.76.76,0,0,1-.75-.75V88.5A.71.71,0,0,1,212,88l6.34-7.93h-5.51a.74.74,0,0,1-.75-.75v-2.5a.74.74,0,0,1,.75-.75h10.8a.75.75,0,0,1,.75.75v2.33a.71.71,0,0,1-.17.46l-6.47,8.07h5.86a.75.75,0,0,1,.75.75V91a.75.75,0,0,1-.75.75Z" fill="#224365"/><path d="M223.63,76.85v2.33l-7.46,9.28h7.43V91h-11V88.49l7.33-9.14h-7.08v-2.5h10.8m0-1.5h-10.8a1.5,1.5,0,0,0-1.5,1.5v2.5a1.5,1.5,0,0,0,1.5,1.5h3.95l-5.37,6.71a1.49,1.49,0,0,0-.33.93V91a1.5,1.5,0,0,0,1.5,1.5h11a1.5,1.5,0,0,0,1.5-1.5V88.46a1.5,1.5,0,0,0-1.5-1.5h-4.3l5.5-6.85a1.49,1.49,0,0,0,.33-.93V76.85a1.5,1.5,0,0,0-1.5-1.5Z" fill="#fff"/><path d="M231.76,92.1a7.19,7.19,0,0,1-5.5-2.22,8.4,8.4,0,0,1-2-5.89,8.64,8.64,0,0,1,2-6,7.8,7.8,0,0,1,11,0,8.68,8.68,0,0,1,2,6,8.4,8.4,0,0,1-2,5.89A7.17,7.17,0,0,1,231.76,92.1Zm0-12.38a2.6,2.6,0,0,0-2.22,1,5.17,5.17,0,0,0-.87,3.22,5,5,0,0,0,.86,3.12,2.64,2.64,0,0,0,2.23,1,2.67,2.67,0,0,0,2.24-1,5,5,0,0,0,.86-3.12,5.17,5.17,0,0,0-.87-3.22A2.62,2.62,0,0,0,231.76,79.72Z" fill="#224365"/><path d="M231.76,76.46a6.35,6.35,0,0,1,5,2,7.93,7.93,0,0,1,1.83,5.5,7.65,7.65,0,0,1-1.83,5.38,7.19,7.19,0,0,1-9.91,0A7.65,7.65,0,0,1,225,84a7.93,7.93,0,0,1,1.84-5.5,6.37,6.37,0,0,1,4.95-2m0,12.39a3.4,3.4,0,0,0,2.82-1.29,5.6,5.6,0,0,0,1-3.59,5.84,5.84,0,0,0-1-3.68,3.67,3.67,0,0,0-5.64,0,5.9,5.9,0,0,0-1,3.68,5.66,5.66,0,0,0,1,3.59,3.38,3.38,0,0,0,2.82,1.29m0-13.89a7.84,7.84,0,0,0-6.06,2.52A9.39,9.39,0,0,0,223.47,84a9.12,9.12,0,0,0,2.24,6.4,8.67,8.67,0,0,0,12.11,0A9.08,9.08,0,0,0,240.05,84a9.38,9.38,0,0,0-2.21-6.5A7.83,7.83,0,0,0,231.76,75Zm0,12.39a1.89,1.89,0,0,1-1.64-.72,4.29,4.29,0,0,1-.7-2.66,4.51,4.51,0,0,1,.71-2.76,2.18,2.18,0,0,1,3.27,0,4.51,4.51,0,0,1,.71,2.76,4.29,4.29,0,0,1-.7,2.66,1.91,1.91,0,0,1-1.65.72Z" fill="#fff"/><path d="M249.35,91.72a.76.76,0,0,1-.65-.38l-4.43-7.72V91a.75.75,0,0,1-.75.75h-2.75A.76.76,0,0,1,240,91V76.85a.75.75,0,0,1,.75-.75h3.1a.77.77,0,0,1,.65.37l4.26,7.46V76.85a.75.75,0,0,1,.75-.75h2.76a.75.75,0,0,1,.75.75V91a.76.76,0,0,1-.75.75Z" fill="#224365"/><path d="M252.29,76.85V91h-2.94L243.52,80.8V91h-2.75V76.85h3.1l5.66,9.9v-9.9h2.76m0-1.5h-2.76a1.5,1.5,0,0,0-1.5,1.5v4.26l-2.86-5a1.5,1.5,0,0,0-1.3-.75h-3.1a1.5,1.5,0,0,0-1.5,1.5V91a1.5,1.5,0,0,0,1.5,1.5h2.75A1.5,1.5,0,0,0,245,91V86.43l3,5.28a1.51,1.51,0,0,0,1.3.76h2.94a1.5,1.5,0,0,0,1.5-1.5V76.85a1.5,1.5,0,0,0-1.5-1.5Z" fill="#fff"/><path d="M255.13,91.72a.75.75,0,0,1-.75-.75V76.85a.74.74,0,0,1,.75-.75h10.39a.75.75,0,0,1,.75.75v2.5a.75.75,0,0,1-.75.75h-6.69v1.51H265a.75.75,0,0,1,.75.75v2.43a.76.76,0,0,1-.75.75h-6.15v2.17h7a.76.76,0,0,1,.75.75V91a.76.76,0,0,1-.75.75Z" fill="#224365"/><path d="M265.52,76.85v2.5h-7.44v3H265v2.42h-6.9v3.68h7.77V91H255.13V76.85h10.39m0-1.5H255.13a1.5,1.5,0,0,0-1.5,1.5V91a1.5,1.5,0,0,0,1.5,1.5h10.72a1.5,1.5,0,0,0,1.5-1.5V88.46a1.5,1.5,0,0,0-1.5-1.5h-6.27v-.68H265a1.5,1.5,0,0,0,1.5-1.5V82.36a1.5,1.5,0,0,0-1.5-1.5h.54a1.5,1.5,0,0,0,1.5-1.5v-2.5a1.5,1.5,0,0,0-1.5-1.5Z" fill="#fff"/></g></svg>