<svg xmlns="http://www.w3.org/2000/svg" viewBox="0 0 286.58 286.58"><g id="Clean_space" data-name="Clean space"><rect width="286.58" height="286.58" fill="none"/></g><g id="Logo_Artwork" data-name="Logo Artwork"><path d="M115.87,138.5a12.37,12.37,0,0,1-8.94-3.74,12.57,12.57,0,0,1-3.55-9.15,12.42,12.42,0,0,1,12.52-12.18h.15A12.61,12.61,0,0,1,128.42,126a12.44,12.44,0,0,1-3.74,8.75,12.65,12.65,0,0,1-8.81,3.71Z" fill="#2375bc"/><path d="M115.9,115.43H116a10.54,10.54,0,0,1-.16,21.07h0a10.54,10.54,0,0,1,0-21.07m0-4a14.54,14.54,0,1,0,0,29.07,14.64,14.64,0,0,0,10.22-4.29,14.46,14.46,0,0,0-10-24.78Z" fill="#fff"/><path d="M142.16,167.86a7.79,7.79,0,0,1-7.91-7.85A7.94,7.94,0,0,1,148,154.67a7.74,7.74,0,0,1,2.23,5.5,7.85,7.85,0,0,1-7.93,7.69Z" fill="#2375bc"/><path d="M142.23,154.18h.05a6.06,6.06,0,0,1,5.92,5.95,5.82,5.82,0,0,1-5.94,5.73h-.08a5.8,5.8,0,0,1-5.93-5.82,6.08,6.08,0,0,1,6-5.86m0-4a10.11,10.11,0,0,0-10,9.81,9.78,9.78,0,0,0,9.88,9.87h.13a9.84,9.84,0,0,0,9.94-9.65,9.71,9.71,0,0,0-2.8-6.93,10.11,10.11,0,0,0-7.07-3.1Z" fill="#fff"/><path d="M47.32,175.79a2,2,0,0,1-2-2l0-14.26a2,2,0,0,1,2-2h0a2,2,0,0,1,2,2l0,14.27a2,2,0,0,1-2,2Z" fill="#001c46"/><path d="M47.29,159.52l0,14.27,0-14.27m0-4h0a4,4,0,0,0-4,4v7.14l0,7.13a4,4,0,0,0,4,4h0a4,4,0,0,0,4-4l0-7.12v-7.15a4,4,0,0,0-4-4Z" fill="#fff"/><path d="M194.39,242.7c-2.58,0-5.13-.11-7.84-.23-1.8-.08-3.64-.16-5.51-.21a2,2,0,0,1-1.57-.81,2,2,0,0,1-.31-1.74l1-3.29a2,2,0,0,1,1.65-1.42l14.92-2,1.37-.69.73-.45c5.08-3.87,7.32-9.3,7.48-18.14.08-5,.06-10,0-14.9,0-5.2-.05-10.57.06-15.87.16-7.71,1-15.94,6-23.91-4.25-28.44-19.82-48.1-47.59-60.07a2,2,0,0,1-1.21-1.72L160.69,47.5a2,2,0,0,1,1.33-2l3.66-1.3v-11L162.21,33c-4.19-.2-6.8-2.75-6.8-6.66s2.49-6.32,6.65-6.76a22.69,22.69,0,0,1,2.44-.13c9.21,0,15.06,6.12,15.28,16,0,.53,0,1.07.05,1.6.17,6.07.35,12.34-4.33,17.06V78.36c2.47,1.53,4.91,3,7.28,4.4a165.86,165.86,0,0,1,16.4,10.67c17.86,13.73,29.41,32.5,34.33,55.81a18.2,18.2,0,0,0,2.56,5.31c5.69,9.21,6.81,21.56,2.93,32.25-3.37,9.31-9.87,16-18.29,18.79a2,2,0,0,1-2.35-.87l-.09,5.67-.06,1c-.05,8.76-.61,17.21-6.57,24.36-2.81,4.13-7.24,6.51-12.85,6.87C197.42,242.66,196,242.7,194.39,242.7Zm24.09-44.39.07-.06a37.46,37.46,0,0,0,7.09-7.68,8,8,0,0,1-1.31.39,53.13,53.13,0,0,1-5.33.72l-.4,0Zm8.81-14.63a2,2,0,0,1,1.66.88c.27-.63.51-1.26.73-1.9l-.55.48a2,2,0,0,1-1.29.48l-7.68.06Zm2.1-7a2,2,0,0,1,1.59.79c.05-.33.09-.67.13-1H220.32l-.06.2Zm-.42-7a2,2,0,0,1,1.46.8l.75,1a22.06,22.06,0,0,0-.48-3.07,2,2,0,0,1-1.71,1h-4.48Zm0-6.06a20.77,20.77,0,0,0-3.07-4.53l-1.85,3.46Z" fill="#0358ad"/><path d="M164.5,21.47c8.12,0,13.09,5.15,13.29,14,.14,6.56.8,13.23-4.29,17.76V79.46C182.27,85,190.61,89.36,198,95c18,13.87,28.89,32.41,33.58,54.63a19.86,19.86,0,0,0,2.83,6c10.25,16.61,4,42-14.3,48.08-.1-1.45-.19-2.79-.26-3.9,15.33-12.55,18.05-33.06,5.6-44L221.07,164l8.19,1.78-.27,1.65h-8.4c-.52,1.3-.92,2.29-1.47,3.63l9.71.67,2.07,2.78H218.85c-.37,1.18-.73,2.36-1.31,4.2h11.85c.18.37.37.74.56,1.11l-2.13,1.82-9.86.07c-.29,1.09-.59,2.17-1.08,4h10.41l.49,1.63a18.94,18.94,0,0,1-3.85,1.69c-2.4.49-4.86.64-7.3.93q-.15,8.46-.31,16.94c0,1.16,0,2.32,0,3.48l-.06.92c-.05,8.27-.47,16.45-6.17,23.23-2.71,4-6.9,5.79-11.37,6.07-1.42.09-2.85.13-4.28.13-4.29,0-8.67-.32-13.3-.43.59-2,.86-3,.95-3.29l15.24-2.09L199,234l.89-.54c6.6-5,8.21-12.14,8.34-19.77.18-10.25-.11-20.51.1-30.76.16-8,1.16-16,6.08-23.5-4.17-29.4-20.18-50-48.89-62.36-.94-16.31-1.91-33.09-2.86-49.7l5-1.78V31.27L162.31,31c-3-.14-4.9-1.7-4.9-4.66s1.91-4.45,4.86-4.77a21.54,21.54,0,0,1,2.23-.12m0-4c-.86,0-1.75.05-2.65.14-5.2.56-8.43,3.91-8.44,8.74,0,5,3.42,8.42,8.71,8.66l1.56.08v7.7l-2.34.83a4,4,0,0,0-2.65,4l2.87,49.7a4,4,0,0,0,2.41,3.45c26.84,11.57,42,30.49,46.29,57.81-4.91,8.23-5.75,16.86-5.9,24.29-.11,5.32-.08,10.71-.06,15.92,0,4.88,0,9.92,0,14.85-.15,8.12-2.13,13.08-6.62,16.53l0,0-.52.32-1,.5-14.48,2h-.11a4,4,0,0,0-3.3,2.85l0,.06-.94,3.23a4,4,0,0,0,.62,3.48,4,4,0,0,0,3.13,1.63c1.85.05,3.7.13,5.49.21,2.72.12,5.29.23,7.91.23,1.63,0,3.12,0,4.53-.14,6.21-.39,11.15-3,14.32-7.65,6.31-7.63,6.91-16.41,7-25.5l0-.38,0-.43c0-.06,0-.12,0-.18v-.06l0-2.67a4.16,4.16,0,0,0,1-.2c8.88-3,16-10.26,19.53-20,4.08-11.26,2.89-24.28-3.1-34a16.86,16.86,0,0,1-2.31-4.68c-5-23.78-16.82-42.95-35.07-57a167.17,167.17,0,0,0-16.59-10.79c-2.06-1.23-4.17-2.49-6.31-3.81V54.89C182.19,49.65,182,43,181.83,37c0-.53,0-1.06-.05-1.59-.25-11-6.87-17.92-17.28-17.92Zm56.07,176.06h.12l-.13.14v-.13Z" fill="#fff"/><path d="M146.63,267.12c-7.94,0-15.54-2.78-23.24-8.49a2,2,0,0,1,.11-3.29l2.66-1.71a2,2,0,0,1,1.08-.32,2.14,2.14,0,0,1,.67.11l11.94,4.24-4.22-8.27a2,2,0,0,1,.19-2.12l2-2.67a2,2,0,0,1,1.59-.8h.15a2,2,0,0,1,1.6,1l7,12.8,2.59-.63-8.12-13.89a2,2,0,0,1,.73-2.74l2.7-1.55a2,2,0,0,1,2.71.7l8.75,14.54,1.45-.88-8.85-14.1a2,2,0,0,1,.78-2.85l2.8-1.43a2,2,0,0,1,.91-.22,2,2,0,0,1,1.67.91l8.05,12.35.83-1.11-5.84-9.41a2,2,0,0,1,0-2.14l.63-1a2,2,0,0,1,1.67-.9,2,2,0,0,1,1,.27c.37.22.77.42,1.16.62a12.84,12.84,0,0,1,3.13,2,11.94,11.94,0,0,1,1.17,1.3c3.85-21.89,16.12-33.36,37.42-35h.16a2,2,0,0,1,1.93,1.49c0,.09.06.19.09.29a7.22,7.22,0,0,1,.4,1.85,8.28,8.28,0,0,1-.16,1.93l-.09.64a2,2,0,0,1-1.11,1.56l-1.1.54-2.15,1.05-.79.4c.33.36.75.72,1.19,1.11,1.73,1.53,4.36,3.84,2.91,8.14a2,2,0,0,1-.72,1,2,2,0,0,1,.09.35,2,2,0,0,1-.36,1.5L204.67,226l-1.88,3.15a2,2,0,0,1-1,.83,1.82,1.82,0,0,1,0,.33,2,2,0,0,1-1,1.53l-3.88,2.27a1.93,1.93,0,0,1-1,.28,2,2,0,0,1-.93-.23,2,2,0,0,1-.73.56,9.26,9.26,0,0,1-3.87,1h0c-2.83,0-4.55-1.68-5.93-3a14.25,14.25,0,0,0-1.23-1.12c-.26.71-.52,1.43-.79,2.15-1.12,3-2.28,6.15-3.3,9.28-4.24,13-12.79,20.91-25.4,23.46A36.39,36.39,0,0,1,146.63,267.12Zm44.26-47.6-.15-.17,0,0Z" fill="#0358ad"/><path d="M205.73,204.52a8.65,8.65,0,0,1,.42,1.75,12.53,12.53,0,0,1-.24,2.21l-3.27,1.6-2.6,1.34c.79,3.67,6.62,4.38,4.91,9.47-4-1.37-5.37-7.06-9.85-7.06h-.31l-1.31,1.68,10.77,7.65c-.42.56-.83,1.13-1.25,1.7l-1.93,3.23-10.25-11.69-3,3.06,12,10.62-3.88,2.28L187,222.23c-2.67,2.79-2.73,2.86.28,5.71,1.7,1.62,3.65,3,6.14,4.94a7.25,7.25,0,0,1-3,.77c-3.78,0-4.9-4.33-8.31-4.83-1.58,4.39-3.35,8.9-4.84,13.49-3.86,11.84-11.43,19.6-23.9,22.12a34.2,34.2,0,0,1-6.72.68c-7.88,0-15.08-2.92-22-8.09l2.66-1.71,14.48,5.14,1.11-1.33c-1.75-3.45-3.51-6.89-5.42-10.64l2-2.68L147.17,260l6.7-1.62-9.49-16.21,2.71-1.55c3.23,5.38,6.36,10.57,9.78,16.25l4.9-3L151.84,238l2.8-1.43c3.17,4.88,6.22,9.55,9.61,14.75l3.35-4.5c-2.22-3.59-4.39-7.07-6.55-10.56l.63-1a20.71,20.71,0,0,1,3.92,2.36c1.21,1.16,2,2.72,3.9,4.46,2.6-21.93,13.14-35.83,36.23-37.63m0-4h-.32c-20.85,1.63-33.77,12.76-38.5,33.13a21,21,0,0,0-2.15-1.22c-.39-.2-.75-.39-1.06-.57a4,4,0,0,0-5.37,1.27l-.31.48-.29.44a4,4,0,0,0-4.91-1l-2.58,1.32-.22.11a4,4,0,0,0-2,2.23,3.64,3.64,0,0,0-1-.13,4,4,0,0,0-2,.53l-2.22,1.27-.48.28a4,4,0,0,0-1.88,2.44,3.88,3.88,0,0,0-.13.83,3.52,3.52,0,0,0-.65-.1l-.3,0a4,4,0,0,0-3.19,1.59l-1.29,1.7-.73,1a4,4,0,0,0-.38,4.23l1.94,3.81-7.21-2.56a4.1,4.1,0,0,0-1.34-.23,3.92,3.92,0,0,0-2.16.64l-2.66,1.71a4,4,0,0,0-.22,6.57c8,6,16,8.88,24.43,8.88a38,38,0,0,0,7.51-.76c13.38-2.7,22.43-11,26.91-24.8.93-2.86,2-5.75,3-8.55a9.21,9.21,0,0,0,6.32,2.65,11.21,11.21,0,0,0,4.7-1.13,2.31,2.31,0,0,0,.35-.18,3.87,3.87,0,0,0,.48,0,4,4,0,0,0,2-.55l3.87-2.28a4,4,0,0,0,1.84-2.39,4.29,4.29,0,0,0,.84-1l1.83-3.07,1.14-1.55a4.07,4.07,0,0,0,.77-2.38,3.81,3.81,0,0,0,.49-1c1.57-4.65-.7-7.64-2.5-9.39l.38-.18,1-.51a4,4,0,0,0,2.22-3.12c0-.19.05-.37.08-.56a10.88,10.88,0,0,0,.18-2.36,9,9,0,0,0-.5-2.35l-.06-.2a4,4,0,0,0-3.86-3Z" fill="#fff"/><path d="M115.51,257.92a24.61,24.61,0,0,1-10.42-2.47c-33.61-15.65-53.63-41.08-59.53-75.56a23.91,23.91,0,0,1-.23-4.27c0-.59,0-1.18,0-1.77l0-14.32c.6-16.44,5.88-31.84,16.15-47.18C73.29,94.66,89.3,82.68,109,76.74c.49-.15,1-.31,1.56-.52V54.28c-6.08-6.24-5-14.85-4-22.46,1-8.12,6.32-12,16.21-12,1.25,0,2.61.06,4,.19a2,2,0,0,1,1.75,1.44,14.38,14.38,0,0,0,.52,1.38c.7,1.67,1.57,3.75.77,5.61-.91,2.09-3.33,3.08-5.47,3.95l-1,.42a10.63,10.63,0,0,1-3.2.72c0,.45-.07.9-.1,1.34-.16,2.29-.31,4.45-.36,6.58a10.12,10.12,0,0,0,.31,2.26A2.38,2.38,0,0,0,120,44l3,1.14a2,2,0,0,1,1.3,1.88v4.62l0,13.37a.53.53,0,0,1,0,.13L122.4,95.66a2,2,0,0,1-1.32,1.75c-33.34,12.08-50.87,35-52.12,68.24-1,26.33,12.88,51.49,34.58,62.88A40.09,40.09,0,0,1,115,226.62c7,0,12.8,2.68,17.64,8.2a2,2,0,0,1,.47,1l1.18-.86c8-5.87,15.67-8.73,23.31-8.73A34.4,34.4,0,0,1,170,228.7a2,2,0,0,1,1.24,2.21l-.69,4a2,2,0,0,1-2.76,1.49,21.23,21.23,0,0,0-8.53-1.9c-5.63,0-11.11,2.59-17.77,8.4L140,244.21c-3.39,3-6.89,6-10.58,8.78A23,23,0,0,1,115.51,257.92Zm3.94-12.4c.16-.09.5-.3.52-.3h0c-.15-.1-.32-.22-.5-.36Zm-16.53-3.19a20.68,20.68,0,0,0,3.41,3.08,9.71,9.71,0,0,1-.45-4.84c0-.39.06-.77.08-1.14Zm22.14-.65a1.09,1.09,0,0,1,0,.18c.94-.67,1.88-1.36,2.81-2.06l-2.68-1.29Z" fill="#0f385d"/><path d="M122.73,21.8q1.81,0,3.87.18c.47,1.64,2,4.13,1.38,5.65s-3.45,2.46-5.44,3.33a18.9,18.9,0,0,1-4.29.77c-.22,3.48-.5,6.56-.57,9.66a24.37,24.37,0,0,0,.59,4L122.38,47v4.62q0,6.67,0,13.37c-.66,10.31-1.32,20.61-2,30.57C86.84,107.69,68.27,130.6,67,165.58c-1,28.09,14,53.73,36.38,65.1A39.83,39.83,0,0,1,115,228.62c5.77,0,11.25,2,16.14,7.52l-2.15,2-5.67-2.75q-.12,3.12-.23,6.23c-.13.49-.25,1-.37,1.46-.38.28-.76.56-1.13.85-.46-.39-1.29-.76-1.32-1.18-.12-2.07.14-4.18-.09-6.23-.12-1.09-.94-2.11-1.45-3.16l-1.26.37v11.88l-3.85,1.26V233.91l-1.76-.1v12.28l-1.88.24c-4.31-2.18-.51-7-2.77-10.83l-7,6.69c3.93,4.9,8,7.36,12.46,7.36A16.42,16.42,0,0,0,121,247c5.09-3,9.7-6.86,14.5-10.37,6.92-5.05,14.15-8.34,22.13-8.34a31.91,31.91,0,0,1,11.71,2.32c-.2,1.14-.4,2.32-.69,4a23.21,23.21,0,0,0-9.32-2.07c-7.17,0-13.28,3.83-19.08,8.89-3.92,3.42-7.81,6.91-12,10a21,21,0,0,1-12.72,4.54,22.66,22.66,0,0,1-9.58-2.28c-32-14.89-52.37-38.85-58.4-74.09a42.43,42.43,0,0,1-.21-5.76l0-14.27c.62-16.94,6.5-32.15,15.82-46.05,11.37-17,26.74-28.87,46.48-34.82.84-.25,1.66-.55,3-1V53.44c-6.06-5.61-5-13.75-4-21.47.87-7,5.42-10.17,14.2-10.17m0-4h0c-13.6,0-17.39,7.44-18.17,13.67v.09c-.94,7.46-2.08,16.63,4,23.51V74.78l-.14,0C88.27,80.9,71.9,93.15,59.78,111.24c-10.48,15.65-15.87,31.4-16.49,48.14v6.73l0,7.69v.12c0,.53,0,1.09,0,1.69a25.66,25.66,0,0,0,.26,4.61c6,35.18,26.42,61.1,60.65,77a26.67,26.67,0,0,0,11.27,2.66,25,25,0,0,0,15.11-5.33c3.75-2.79,7.28-5.88,10.69-8.87l1.52-1.33c6.27-5.47,11.34-7.91,16.45-7.91a19.24,19.24,0,0,1,7.73,1.74,4,4,0,0,0,5.53-3l.69-4a4,4,0,0,0-2.49-4.41,36.12,36.12,0,0,0-13.16-2.59c-7.9,0-15.74,2.85-23.94,8.71A24.52,24.52,0,0,0,115,224.62a40.91,40.91,0,0,0-11.22,1.77C83.14,215.17,70,191,71,165.72c1.23-32.76,17.85-54.49,50.8-66.43a4,4,0,0,0,2.63-3.5l2-30.57a2.18,2.18,0,0,0,0-.25V47a4,4,0,0,0-2.59-3.75l-.21-.08-1.79-.67a5,5,0,0,1-.11-1c0-2,.19-4,.34-6.22a9.62,9.62,0,0,0,2.12-.64l1-.4c2.36-1,5.31-2.17,6.54-5,1.15-2.64,0-5.27-.75-7.18-.18-.43-.38-.91-.45-1.16A4,4,0,0,0,127,18c-1.49-.12-2.9-.19-4.22-.19Z" fill="#fff"/><path d="M109.62,181.46a13.1,13.1,0,0,1-6.78-2,13.74,13.74,0,0,1-6.16-14.87,13.15,13.15,0,0,1,13-10.08h.26c6.48,0,10.63,3.16,12.7,9.64,1.79,4.87.69,9.4-3.19,13.12a14.56,14.56,0,0,1-9.79,4.15Z" fill="#0f385d"/><path d="M109.9,156.56c5.58,0,9,2.63,10.81,8.28,1.59,4.27.56,7.92-2.69,11a12.49,12.49,0,0,1-8.4,3.6,11.09,11.09,0,0,1-5.76-1.67,11.71,11.71,0,0,1-5.24-12.67,11.12,11.12,0,0,1,11-8.56h.23m0-4h-.28a15.1,15.1,0,0,0-14.88,11.59,15.79,15.79,0,0,0,7.07,17.08,15.1,15.1,0,0,0,7.81,2.23,16.48,16.48,0,0,0,11.1-4.64.46.46,0,0,1,.07-.07c4.49-4.3,5.77-9.55,3.7-15.21-2.34-7.29-7.24-11-14.59-11Z" fill="#fff"/><path d="M126.23,203.28a8.25,8.25,0,0,1-8-7.9,7.76,7.76,0,0,1,2.23-5.57,8.12,8.12,0,0,1,5.65-2.46h.1a8,8,0,0,1,.06,15.93Z" fill="#0f385d"/><path d="M126.23,189.35a6,6,0,0,1,0,11.93h0a6.23,6.23,0,0,1-6-5.94,6,6,0,0,1,5.91-6h.08m0-4h-.13a10.07,10.07,0,0,0-7,3.07,9.73,9.73,0,0,0-2.8,7,10.19,10.19,0,0,0,10,9.86h.07a10,10,0,0,0-.07-19.92Z" fill="#fff"/><path d="M116,115.43a10.54,10.54,0,1,0-.16,21.07,10.54,10.54,0,0,0,.16-21.07Z" fill="#2375bc"/><path d="M142.28,154.18a6.08,6.08,0,0,0-6,5.86,6,6,0,0,0,11.95.09A6.06,6.06,0,0,0,142.28,154.18Z" fill="#2375bc"/><path d="M47.29,159.52l0,14.27Z" fill="#001c46"/><path d="M234.38,155.61a19.86,19.86,0,0,1-2.83-6C226.86,127.43,216,108.89,198,95c-7.36-5.66-15.7-10-24.47-15.56V53.24c5.09-4.53,4.43-11.2,4.29-17.76-.22-9.64-6.09-14.9-15.52-13.89-3,.32-4.85,1.83-4.86,4.77s1.91,4.52,4.9,4.66l5.37.25V45.61l-5,1.78c.95,16.61,1.92,33.39,2.86,49.7,28.71,12.38,44.72,33,48.89,62.36-4.92,7.5-5.92,15.45-6.08,23.5-.21,10.25.08,20.51-.1,30.76-.13,7.63-1.74,14.79-8.34,19.77L199,234l-1.75.87L182,237c-.09.29-.36,1.25-.95,3.29,6.18.15,11.9.67,17.58.3,4.47-.28,8.66-2,11.37-6.07,5.7-6.78,6.12-15,6.17-23.23l.06-.92,0-3.48q.17-8.48.31-16.94c2.44-.29,4.9-.44,7.3-.93a18.94,18.94,0,0,0,3.85-1.69l-.49-1.63H216.88c.49-1.82.79-2.9,1.08-4l9.86-.07L230,179.8c-.19-.37-.38-.74-.56-1.11H217.54c.58-1.84.94-3,1.31-4.2H230.9l-2.07-2.78-9.71-.67c.55-1.34.95-2.33,1.47-3.63H229l.27-1.65L221.07,164l4.35-8.16c12.45,10.91,9.73,31.42-5.6,44,.07,1.11.16,2.45.26,3.9C238.37,197.59,244.63,172.22,234.38,155.61Z" fill="#0358ad"/><path d="M193.44,232.88c-2.49-2-4.44-3.32-6.14-4.94-3-2.85-3-2.92-.28-5.71l8.91,10.14,3.88-2.28-12-10.62,3-3.06,10.25,11.69,1.93-3.23c.42-.57.83-1.14,1.25-1.7l-10.77-7.65,1.31-1.68c4.74-.27,6.05,5.65,10.16,7,1.71-5.09-4.12-5.8-4.91-9.47l2.6-1.34,3.27-1.6a12.53,12.53,0,0,0,.24-2.21,8.65,8.65,0,0,0-.42-1.75c-23.09,1.8-33.63,15.7-36.23,37.63-1.86-1.74-2.69-3.3-3.9-4.46a20.71,20.71,0,0,0-3.92-2.36l-.63,1c2.16,3.49,4.33,7,6.55,10.56l-3.35,4.5c-3.39-5.2-6.44-9.87-9.61-14.75l-2.8,1.43,9.93,15.83-4.9,3c-3.42-5.68-6.55-10.87-9.78-16.25l-2.71,1.55,9.49,16.21-6.7,1.62-7.73-14.15-2,2.68c1.91,3.75,3.67,7.19,5.42,10.64l-1.11,1.33-14.48-5.14L124.58,257c8.89,6.6,18.17,9.54,28.77,7.41,12.47-2.52,20-10.28,23.9-22.12,1.49-4.59,3.26-9.1,4.84-13.49C186.27,229.43,187,235.81,193.44,232.88Z" fill="#0358ad"/><path d="M135.45,236.59c-4.8,3.51-9.41,7.35-14.5,10.37-7.87,4.65-14.51,3-20.78-4.77l7-6.69c2.26,3.88-1.54,8.65,2.77,10.83l1.88-.24V233.81l1.76.1v12.94l3.85-1.26V233.71l1.26-.37c.51,1,1.33,2.07,1.45,3.16.23,2.05,0,4.16.09,6.23,0,.42.86.79,1.32,1.18.37-.29.75-.57,1.13-.85.12-.49.24-1,.37-1.46q.11-3.1.23-6.23l5.67,2.75,2.15-2c-8.09-9.21-17.83-8.53-27.78-5.46-22.41-11.37-37.43-37-36.38-65.1,1.31-35,19.88-57.89,53.44-70.05.64-10,1.3-20.26,2-30.57l0-13.37V47l-4.11-1.55a24.37,24.37,0,0,1-.59-4c.07-3.1.35-6.18.57-9.66a18.9,18.9,0,0,0,4.29-.77c2-.87,4.74-1.72,5.44-3.33s-.91-4-1.38-5.65c-11.32-1-17.08,2.05-18.07,10-1,7.72-2,15.86,4,21.47V77.65c-1.33.45-2.15.75-3,1C89.85,84.6,74.48,96.48,63.11,113.47c-9.32,13.9-15.2,29.11-15.82,46.05l0,14.27a42.43,42.43,0,0,0,.21,5.76c6,35.24,26.44,59.2,58.4,74.09,7.89,3.67,15.4,2.89,22.3-2.26,4.16-3.1,8.05-6.59,12-10,8.15-7.11,16.91-11.8,28.4-6.82.29-1.66.49-2.84.69-4C156.44,225.56,145.6,229.19,135.45,236.59Z" fill="#0f385d"/><path d="M109.67,156.56a11.12,11.12,0,0,0-11,8.56,11.71,11.71,0,0,0,5.24,12.67c4.63,2.76,9.79,2.06,14.16-1.93,3.25-3.1,4.28-6.75,2.69-11C118.9,159.12,115.39,156.48,109.67,156.56Z" fill="#0f385d"/><path d="M120.24,195.34a6.22,6.22,0,0,0,6,5.94,6,6,0,1,0-6-5.94Z" fill="#0f385d"/></g></svg>