<svg xmlns="http://www.w3.org/2000/svg" viewBox="0 0 288 121.84"><g id="Clean_space" data-name="Clean space"><rect width="288" height="121.84" fill="none"/></g><g id="Logo_Artwork" data-name="Logo Artwork"><path d="M217.71,88.48a8.54,8.54,0,0,0-2.41-5.81,9,9,0,0,0-5.81-2.4,8.28,8.28,0,0,0-5.81,2.4,8.43,8.43,0,0,0-2.41,5.81c0,1,0,1.94,0,2.9a8.54,8.54,0,0,0,2.41,5.82,9,9,0,0,0,5.81,2.4,8.3,8.3,0,0,0,5.81-2.4,8.45,8.45,0,0,0,2.41-5.82C217.74,90.42,217.72,89.45,217.71,88.48Z" fill="#fff"/><path d="M143,87.25a7.4,7.4,0,0,0-4.35-4.34,6.14,6.14,0,0,0-3.16-.71l-2.19.29a8.25,8.25,0,0,0-3.63,2.12l-1.28,1.66a8.05,8.05,0,0,0-1.12,4.15v.19a6.17,6.17,0,0,0,.7,3.17,8.47,8.47,0,0,0,7.52,5l2.18-.29a8.25,8.25,0,0,0,3.63-2.12l1.28-1.66a8.08,8.08,0,0,0,1.12-4.15v-.19A6.17,6.17,0,0,0,143,87.25Z" fill="#fff"/><path d="M116.37,86a7.46,7.46,0,0,0-6.82-3.8c-8.12,0-10,9.68-5.66,14.18a7.46,7.46,0,0,0,6.82,3.8C118.83,100.18,120.72,90.5,116.37,86Z" fill="#fff"/><path d="M68.36,83a5.09,5.09,0,0,0-.85-.58l-2-.83a8.31,8.31,0,0,0-4.37,0l-2,.83a8.26,8.26,0,0,0-3,2.95,8.81,8.81,0,0,0-1.18,4.35,8.11,8.11,0,0,0,.15,1.2c.05.37.08.81.17,1.2a8.85,8.85,0,0,0,2.39,4c.28.23.57.45.87.68s.57.46.87.67l.12.06,1,.44c.33.15.65.29,1,.41s1.2.21,1.81.29a8.54,8.54,0,0,0,3.15.58C76.57,99.22,77.17,84.65,68.36,83Z" fill="#fff"/><path d="M61.83,98.4l-.13,0,0,0C61.34,98.3,61.28,98.29,61.83,98.4Z" fill="#fff"/><path d="M31.22,85.87c-10.57,0-10.59,16.44,0,16.44S41.82,85.87,31.22,85.87Z" fill="#fff"/><path d="M218,43.42c-10.58,0-10.59,16.44,0,16.44S228.55,43.42,218,43.42Z" fill="#fff"/><path d="M194.16,84.33c-10.58,0-10.59,16.43,0,16.43S204.76,84.33,194.16,84.33Z" fill="#fff"/><path d="M32.09,77.9c-10.57,0-10.59,16.43,0,16.43S42.69,77.9,32.09,77.9Z" fill="#fff"/><path d="M42.37,83.55c-7.47,0-7.48,11.61,0,11.61S49.85,83.55,42.37,83.55Z" fill="#fff"/><rect x="29.4" y="22.22" width="9.25" height="8.05" rx="1.23" fill="#224365"/><path d="M37.41,23.45V29H30.63V23.45h6.78m0-2.46H30.63a2.46,2.46,0,0,0-2.46,2.46V29a2.46,2.46,0,0,0,2.46,2.46h6.78A2.47,2.47,0,0,0,39.88,29V23.45A2.47,2.47,0,0,0,37.41,21Z" fill="#fff"/><path d="M22.06,63.11a1.23,1.23,0,0,1-1.23-1.23V32.4a1.24,1.24,0,0,1,1.23-1.24h6.78a1.24,1.24,0,0,1,1.23,1.24v21c0,.57.13.73.26.79H38c.11-.06.22-.21.22-.79v-21a1.24,1.24,0,0,1,1.24-1.24h6.75a1.24,1.24,0,0,1,1.23,1.24V46.52h1.33a1,1,0,0,1,.34,0l.37,0,.18,0,0,0c.15,0,.37-.13.37-.83V32.4a1.24,1.24,0,0,1,1.24-1.24h6.78A1.24,1.24,0,0,1,59.3,32.4V45.73a1.51,1.51,0,0,0,.12.72.28.28,0,0,0,.15.12h1.88l1.29,0a3.31,3.31,0,0,0,.54,0l.1,0c.07,0,.29-.1.29-.81V32.4a1.24,1.24,0,0,1,1.23-1.24h6.78a1.24,1.24,0,0,1,1.23,1.24V45.73c0,.55.12.76.23.84h2.1l.82,0,.83-.06.33,0s.09-.06.1-.09a1.37,1.37,0,0,0,.11-.68V32.4a1.24,1.24,0,0,1,1.23-1.24h6.75a1.25,1.25,0,0,1,1.24,1.24V45.73c0,.55.12.76.25.84h1.6a1.49,1.49,0,0,1,.36,0h19.41c-.14-.55-.73-2.8-.88-3.36L107,41.6l0-.2a2.1,2.1,0,0,0-.68-1.12l-.09,0a3.22,3.22,0,0,0-1.36-.17H92.16a1.23,1.23,0,0,1-1.23-1.24V32.37a1.23,1.23,0,0,1,1.23-1.23h13.22c.78,0,1.51,0,2.16.07a13.56,13.56,0,0,1,1.77.24,6.49,6.49,0,0,1,4.1,2.24,11.87,11.87,0,0,1,2.18,5l2,7.82h1.58a1.23,1.23,0,0,1,1.23,1.23v6.44a1.23,1.23,0,0,1-1.23,1.23H88.86l-.27,0a5.48,5.48,0,0,1-3.91-2,4.78,4.78,0,0,1-.34.42A4,4,0,0,1,82,55.17a8.78,8.78,0,0,1-1.67.21c-.62,0-1.4,0-2.33,0H75.36a5.62,5.62,0,0,1-4.45-2,5,5,0,0,1-.35.43,4.25,4.25,0,0,1-2.31,1.34,6.44,6.44,0,0,1-1.62.2c-.62,0-1.41,0-2.35,0H61.71a5.57,5.57,0,0,1-4.41-2c-.11.14-.22.28-.34.41a3.93,3.93,0,0,1-2.29,1.33,9,9,0,0,1-1.69.21c-.63,0-1.41,0-2.35,0H47.42a10.35,10.35,0,0,1-.93,4.83A5,5,0,0,1,43,62.77a1.15,1.15,0,0,1-.26,0,21.53,21.53,0,0,1-4,.31Z" fill="#224365"/><path d="M105.38,32.37c.76,0,1.45,0,2.07.07a14.82,14.82,0,0,1,1.61.21,5.36,5.36,0,0,1,3.4,1.83,10.52,10.52,0,0,1,1.92,4.5l2.22,8.77h2.54v6.44H88.86v0a4.62,4.62,0,0,1-4.25-3.26A6.49,6.49,0,0,1,83.42,53a2.74,2.74,0,0,1-1.65.94,7.55,7.55,0,0,1-1.48.19c-.61,0-1.37,0-2.28,0H75.36a4.61,4.61,0,0,1-4.5-3.28A6.51,6.51,0,0,1,69.65,53,3,3,0,0,1,68,54a5.43,5.43,0,0,1-1.35.17c-.62,0-1.39,0-2.32,0H61.71q-3.14,0-4.47-3.28A6.32,6.32,0,0,1,56,53a2.67,2.67,0,0,1-1.62.94,7.57,7.57,0,0,1-1.5.19c-.61,0-1.38,0-2.29,0H46.19v1.14a9.35,9.35,0,0,1-.79,4.34,3.81,3.81,0,0,1-2.69,1.9l0,0a19.31,19.31,0,0,1-4,.34H22.06V32.4h6.78v21c0,1.14.44,1.81,1.31,2h8c.86-.19,1.29-.86,1.29-2v-21h6.75V47.75h2.56v.06l.86,0a3.22,3.22,0,0,0,.51-.1h0a1.88,1.88,0,0,0,1.2-2V32.4h6.78V45.73a2.71,2.71,0,0,0,.29,1.35,1.73,1.73,0,0,0,1,.73l2.15,0,1.31,0a6.19,6.19,0,0,0,.67-.05l.28,0a1.88,1.88,0,0,0,1.17-2V32.4h6.78V45.73c0,1.12.4,1.81,1.2,2.08h1.74l.67,0,.85,0,.84-.06a4.37,4.37,0,0,0,.57,0,1.6,1.6,0,0,0,.86-.7,2.68,2.68,0,0,0,.25-1.27V32.4h6.75V45.73a1.94,1.94,0,0,0,1.23,2.08h2.22v-.06h21c-.11-.47-.24-1-.38-1.54s-.29-1.11-.44-1.68-.3-1.13-.44-1.68-.27-1.06-.39-1.54l0,0a3.37,3.37,0,0,0-1.45-2.22v0a4.44,4.44,0,0,0-1.94-.31H92.16V32.37h13.22m0-2.47H92.16a2.47,2.47,0,0,0-2.46,2.47v6.47a2.46,2.46,0,0,0,2.46,2.46h12.68a4.73,4.73,0,0,1,.77.05,1,1,0,0,1,.15.31c0,.08,0,.15,0,.23.12.49.25,1,.4,1.58s.29,1.12.45,1.7l0,.12H88.86a2.32,2.32,0,0,0-.53.05h-.45V32.4a2.48,2.48,0,0,0-2.47-2.47H78.66A2.47,2.47,0,0,0,76.2,32.4V45.28H76l-.78,0h-1V32.4a2.48,2.48,0,0,0-2.47-2.47H64.9a2.47,2.47,0,0,0-2.46,2.47V45.31l-1,0h-.9V32.4a2.47,2.47,0,0,0-2.46-2.47H51.29a2.47,2.47,0,0,0-2.47,2.47V45.29h-.17V32.4a2.47,2.47,0,0,0-2.46-2.47H39.44A2.47,2.47,0,0,0,37,32.4V53H31.3V32.4a2.47,2.47,0,0,0-2.46-2.47H22.06a2.48,2.48,0,0,0-2.47,2.47V61.88a2.48,2.48,0,0,0,2.47,2.47H38.75A23.17,23.17,0,0,0,42.86,64l.39-.06a6.2,6.2,0,0,0,4.33-3.13,10.26,10.26,0,0,0,1-4.18h2c1,0,1.75,0,2.41,0a10.26,10.26,0,0,0,1.88-.23,5,5,0,0,0,2.43-1.19,6.83,6.83,0,0,0,4.36,1.47h2.57c1,0,1.75,0,2.39,0a8,8,0,0,0,1.87-.24A5.38,5.38,0,0,0,71,55.18a6.88,6.88,0,0,0,4.4,1.48H78c1,0,1.74,0,2.39,0a10.13,10.13,0,0,0,1.86-.23,5.06,5.06,0,0,0,2.47-1.2,6.78,6.78,0,0,0,3.7,1.44,3,3,0,0,0,.43,0h30.28a2.48,2.48,0,0,0,2.47-2.47V47.75a2.47,2.47,0,0,0-2.47-2.46h-.62l-1.74-6.89a12.89,12.89,0,0,0-2.43-5.51,7.74,7.74,0,0,0-4.85-2.66,15,15,0,0,0-1.86-.25c-.69-.05-1.45-.08-2.26-.08Z" fill="#fff"/><path d="M134.75,63.11a1.23,1.23,0,0,1-1.23-1.23V32.4a1.24,1.24,0,0,1,1.23-1.24h6.78a1.24,1.24,0,0,1,1.23,1.24v21c0,.57.13.73.26.79h7.65c.11-.06.22-.21.22-.79v-21a1.25,1.25,0,0,1,1.24-1.24h6.75a1.24,1.24,0,0,1,1.23,1.24V55.33a10.45,10.45,0,0,1-.93,4.92,4.94,4.94,0,0,1-3.51,2.52,1.09,1.09,0,0,1-.26,0,21.26,21.26,0,0,1-3.94.31Z" fill="#1c71bb"/><path d="M158.88,32.4V55.33a9.5,9.5,0,0,1-.78,4.34,3.83,3.83,0,0,1-2.7,1.9l0,0a19.13,19.13,0,0,1-4,.34H134.75V32.4h6.78v21c0,1.14.44,1.81,1.31,2h8c.85-.19,1.28-.86,1.28-2v-21h6.75m0-2.47h-6.75a2.48,2.48,0,0,0-2.47,2.47V53H144V32.4a2.48,2.48,0,0,0-2.47-2.47h-6.78a2.48,2.48,0,0,0-2.47,2.47V61.88a2.48,2.48,0,0,0,2.47,2.47h16.72a22.81,22.81,0,0,0,4.08-.32l.39-.06a6.18,6.18,0,0,0,4.33-3.14,11.68,11.68,0,0,0,1.07-5.5V32.4a2.47,2.47,0,0,0-2.46-2.47Z" fill="#fff"/><rect x="142.12" y="22.22" width="9.22" height="8.05" rx="1.23" fill="#1c71bb"/><path d="M150.11,23.45V29h-6.76V23.45h6.76m0-2.46h-6.76a2.46,2.46,0,0,0-2.46,2.46V29a2.46,2.46,0,0,0,2.46,2.46h6.76A2.46,2.46,0,0,0,152.57,29V23.45A2.46,2.46,0,0,0,150.11,21Z" fill="#fff"/><rect x="211.11" y="56.29" width="9.22" height="8.08" rx="1.23" fill="#1c71bb"/><path d="M219.1,57.52v5.61h-6.75V57.52h6.75m0-2.46h-6.75a2.47,2.47,0,0,0-2.47,2.46v5.61a2.47,2.47,0,0,0,2.47,2.47h6.75a2.46,2.46,0,0,0,2.46-2.47V57.52a2.46,2.46,0,0,0-2.46-2.46Z" fill="#fff"/><rect x="201.49" y="56.29" width="9.25" height="8.08" rx="1.23" fill="#1c71bb"/><path d="M209.5,57.52v5.61h-6.78V57.52h6.78m0-2.46h-6.78a2.47,2.47,0,0,0-2.47,2.46v5.61a2.47,2.47,0,0,0,2.47,2.47h6.78A2.46,2.46,0,0,0,212,63.13V57.52a2.46,2.46,0,0,0-2.46-2.46Z" fill="#fff"/><path d="M186.14,55.42a5.54,5.54,0,0,1-4.4-2,4.31,4.31,0,0,1-.32.4,4,4,0,0,1-2.33,1.33,8.78,8.78,0,0,1-1.67.21c-.62,0-1.4,0-2.33,0h-4.9c-.89,0-1.69,0-2.37-.09a15,15,0,0,1-1.84-.25.48.48,0,0,1-.17,0,5.69,5.69,0,0,1-1.9-.84,4.85,4.85,0,0,1-1.46-1.65,7.21,7.21,0,0,1-.73-2.2,16.63,16.63,0,0,1-.2-2.7v-22a1.24,1.24,0,0,1,1.23-1.24h6.75a1.25,1.25,0,0,1,1.24,1.24V45.73c0,.56.12.72.25.79h1.31a1,1,0,0,1,.3,0l.93-.05.67-.06c.15-.07.31-.22.31-.78V38.86a9.83,9.83,0,0,1,1-5,5,5,0,0,1,3.68-2.39,12.1,12.1,0,0,1,1.7-.23c.66,0,1.4-.08,2.22-.08h9.34c.69,0,1.35,0,2,.08a16,16,0,0,1,1.72.23A5.34,5.34,0,0,1,200,33.78a9.49,9.49,0,0,1,1.1,5.08v7.66h9.77c.14-.07.27-.23.27-.79V32.4a1.24,1.24,0,0,1,1.24-1.24h6.72a1.24,1.24,0,0,1,1.23,1.24V47.64a10.38,10.38,0,0,1-.93,4.91,5,5,0,0,1-3.46,2.52.86.86,0,0,1-.28,0,21.38,21.38,0,0,1-4,.31ZM184.25,40c-.34,0-.55.08-.55.85v4.87a1.33,1.33,0,0,0,.12.69.42.42,0,0,0,.15.15l7.92,0V40.86c0-.54-.12-.75-.23-.85Z" fill="#1c71bb"/><path d="M169.5,25.65V45.73c0,1.12.43,1.79,1.29,2h1.51v.06l1.31-.07a7.19,7.19,0,0,0,.92-.1,1.85,1.85,0,0,0,1.21-2V38.86a8.75,8.75,0,0,1,.87-4.37,3.87,3.87,0,0,1,2.84-1.81,13,13,0,0,1,1.58-.21c.61,0,1.32-.07,2.12-.07h9.34c.67,0,1.29,0,1.87.07s1.1.12,1.58.21a4.18,4.18,0,0,1,3,1.77,8.34,8.34,0,0,1,.91,4.41v8.89h11.2a1.81,1.81,0,0,0,1.31-2V32.4h6.72V47.64a9.42,9.42,0,0,1-.78,4.33,3.91,3.91,0,0,1-2.67,1.91l0,0a19.31,19.31,0,0,1-4,.34H186.14a4.51,4.51,0,0,1-4.44-3.28A6.68,6.68,0,0,1,180.5,53a2.74,2.74,0,0,1-1.65.94,7.55,7.55,0,0,1-1.48.19c-.61,0-1.37,0-2.28,0h-4.9c-.86,0-1.61,0-2.27-.09a15.31,15.31,0,0,1-1.69-.22h0a4.84,4.84,0,0,1-1.64-.7A3.48,3.48,0,0,1,163.54,52a5.64,5.64,0,0,1-.6-1.82,14,14,0,0,1-.19-2.49v-22h6.75m14.19,22.16,9.43-.06V40.86A1.94,1.94,0,0,0,192,38.78H184.2c-1.16.09-1.73.79-1.73,2.08v4.87a2.5,2.5,0,0,0,.31,1.35,1.8,1.8,0,0,0,.91.73M169.5,23.18h-6.75a2.46,2.46,0,0,0-2.46,2.47v22a16.91,16.91,0,0,0,.22,2.91,8.49,8.49,0,0,0,.86,2.59,6.16,6.16,0,0,0,1.83,2.06,6.9,6.9,0,0,0,2.25,1,1.38,1.38,0,0,0,.29.08,17.43,17.43,0,0,0,2,.27c.72.06,1.56.1,2.48.1h4.9c1,0,1.74,0,2.39,0a10.13,10.13,0,0,0,1.86-.23,5.1,5.1,0,0,0,2.45-1.18,6.82,6.82,0,0,0,4.35,1.46h25.55a23.21,23.21,0,0,0,4.12-.32,2,2,0,0,0,.42-.07,6.33,6.33,0,0,0,4.26-3.13,11.68,11.68,0,0,0,1.07-5.5V32.4a2.47,2.47,0,0,0-2.46-2.47h-6.72a2.47,2.47,0,0,0-2.47,2.47V45.29h-7.57V38.86a10.61,10.61,0,0,0-1.3-5.74,6.53,6.53,0,0,0-4.66-2.86,15.69,15.69,0,0,0-1.82-.25c-.65-.05-1.34-.08-2.07-.08h-9.34c-.86,0-1.63,0-2.31.08a14.43,14.43,0,0,0-1.87.25,6.28,6.28,0,0,0-4.48,3,10.86,10.86,0,0,0-1.21,5.62v6.43l-.58,0a2.69,2.69,0,0,0-.4,0H172V25.65a2.46,2.46,0,0,0-2.47-2.47Zm15.43,18.06h5.72V45.3l-5.72,0V41.24Z" fill="#fff"/><rect x="221.8" y="24.41" width="9.22" height="31.01" rx="1.23" fill="#1c71bb"/><path d="M229.78,25.65V54.19H223V25.65h6.75m0-2.47H223a2.47,2.47,0,0,0-2.47,2.47V54.19A2.48,2.48,0,0,0,223,56.66h6.75a2.48,2.48,0,0,0,2.47-2.47V25.65a2.47,2.47,0,0,0-2.47-2.47Z" fill="#fff"/><path d="M222.86,67.9a1.23,1.23,0,0,1-1.23-1.23V64.36a1.25,1.25,0,0,1,.66-1.1,2.92,2.92,0,0,1-.66-1.92V59.72a4.12,4.12,0,0,1,.46-2.14,2.59,2.59,0,0,1,1.77-1.18,8,8,0,0,1,1.45-.11h4.47A1.23,1.23,0,0,1,231,57.52v2.34a1.22,1.22,0,0,1-.21.69,3.32,3.32,0,0,1,1,2.58v1.34a4.28,4.28,0,0,1-.45,2.14,2.62,2.62,0,0,1-1.82,1.21,9.41,9.41,0,0,1-1.41.08Z" fill="#1c71bb"/><path d="M229.78,57.52v2.34h-4.19c-.21,0-.31.14-.31.43s.05.56.14.62a2.58,2.58,0,0,0,.57,0h2.51a2.12,2.12,0,0,1,1.42.48,2.09,2.09,0,0,1,.69,1.71v1.34a3,3,0,0,1-.29,1.51,1.39,1.39,0,0,1-1,.63,8.57,8.57,0,0,1-1.17.06h-5.3V64.36h5c.21,0,.32-.17.32-.46a2.38,2.38,0,0,0,0-.51c0-.1-.15-.14-.32-.14h-2.65a2.85,2.85,0,0,1-1.48-.4,1.61,1.61,0,0,1-.85-1.51V59.72a3,3,0,0,1,.28-1.5,1.4,1.4,0,0,1,1-.61,6.67,6.67,0,0,1,1.2-.09h4.47m0-2.46h-4.47a9.7,9.7,0,0,0-1.63.12h-.07A3.8,3.8,0,0,0,221,57a5.21,5.21,0,0,0-.64,2.77v1.62a4.37,4.37,0,0,0,.36,1.74,2.42,2.42,0,0,0-.36,1.28v2.31a2.47,2.47,0,0,0,2.47,2.46h5.3a10.28,10.28,0,0,0,1.51-.08l.14,0a3.81,3.81,0,0,0,2.64-1.8,5.37,5.37,0,0,0,.62-2.76V63.13a4.73,4.73,0,0,0-.86-2.85,2.85,2.85,0,0,0,0-.42V57.52a2.47,2.47,0,0,0-2.47-2.46Z" fill="#fff"/><path d="M250,56.39a5.44,5.44,0,0,1-3.29-1.13,1,1,0,0,1-.24-.15,5.57,5.57,0,0,1,0-8.34A5.27,5.27,0,0,1,250,45.44a5.18,5.18,0,0,1,3.56,1.37,5,5,0,0,1,1.83,4.13,5.88,5.88,0,0,1-.44,2.29,4.88,4.88,0,0,1-1.44,1.89A5.26,5.26,0,0,1,250,56.39Z" fill="#1c71bb"/><path d="M250,46.67a4,4,0,0,1,2.73,1,3.9,3.9,0,0,1,1.43,3.22,4.56,4.56,0,0,1-.35,1.81,3.57,3.57,0,0,1-1.08,1.41,4.11,4.11,0,0,1-2.73,1,4.3,4.3,0,0,1-2.74-1v0a4,4,0,0,1-1.42-3.22,3.93,3.93,0,0,1,1.42-3.22,4.11,4.11,0,0,1,2.74-1m0-2.47a6.46,6.46,0,0,0-4.32,1.64,6.37,6.37,0,0,0-2.31,5.1,6.45,6.45,0,0,0,2.31,5.11,1.9,1.9,0,0,0,.37.26,6.67,6.67,0,0,0,8.26-.25,6.18,6.18,0,0,0,1.78-2.35,7.23,7.23,0,0,0,.53-2.77,6.35,6.35,0,0,0-2.29-5.1A6.47,6.47,0,0,0,250,44.2Z" fill="#fff"/><rect x="256.55" y="24.41" width="9.22" height="31.01" rx="1.23" fill="#1c71bb"/><path d="M264.53,25.65V54.19h-6.75V25.65h6.75m0-2.47h-6.75a2.46,2.46,0,0,0-2.46,2.47V54.19a2.47,2.47,0,0,0,2.46,2.47h6.75A2.47,2.47,0,0,0,267,54.19V25.65a2.46,2.46,0,0,0-2.47-2.47Z" fill="#fff"/><path d="M257.33,24.09a1.25,1.25,0,0,1-1.24-1.24v-2.3a1.26,1.26,0,0,1,.67-1.1,2.93,2.93,0,0,1-.67-1.92V15.9a4.08,4.08,0,0,1,.47-2.13,2.59,2.59,0,0,1,1.77-1.18,7.92,7.92,0,0,1,1.45-.11h4.47a1.23,1.23,0,0,1,1.23,1.23v2.34a1.27,1.27,0,0,1-.21.69,3.32,3.32,0,0,1,1,2.58v1.34a4.13,4.13,0,0,1-.46,2.13A2.58,2.58,0,0,1,264,24a11.09,11.09,0,0,1-1.41.08Z" fill="#1c71bb"/><path d="M264.25,13.71v2.34h-4.19c-.21,0-.31.14-.31.42s.05.57.14.63a2.58,2.58,0,0,0,.57,0H263a2.12,2.12,0,0,1,1.42.48,2.09,2.09,0,0,1,.69,1.71v1.34a3.07,3.07,0,0,1-.29,1.51,1.42,1.42,0,0,1-1,.63,8.64,8.64,0,0,1-1.16.05h-5.3v-2.3h5c.21,0,.31-.17.31-.46a4.18,4.18,0,0,0,0-.51c0-.1-.15-.14-.32-.14h-2.65a2.85,2.85,0,0,1-1.48-.4,1.62,1.62,0,0,1-.85-1.51V15.9a3,3,0,0,1,.28-1.49,1.35,1.35,0,0,1,1-.61,6.67,6.67,0,0,1,1.2-.09h4.47m0-2.47h-4.47a8.68,8.68,0,0,0-1.63.13h-.07a3.82,3.82,0,0,0-2.58,1.75,5.26,5.26,0,0,0-.64,2.77v1.63a4.2,4.2,0,0,0,.36,1.74,2.42,2.42,0,0,0-.36,1.28v2.3a2.46,2.46,0,0,0,2.47,2.47h5.3a12.08,12.08,0,0,0,1.52-.08l.13,0a3.81,3.81,0,0,0,2.64-1.8,5.37,5.37,0,0,0,.62-2.76V19.32a4.73,4.73,0,0,0-.86-2.85,3,3,0,0,0,0-.42V13.71a2.47,2.47,0,0,0-2.46-2.47Z" fill="#fff"/><path d="M23,103.3a1.23,1.23,0,0,1-1.23-1.23V78.85A1.23,1.23,0,0,1,23,77.62H34.25a9.24,9.24,0,0,1,6,1.83,6.47,6.47,0,0,1,2.35,5.28,6.33,6.33,0,0,1-1.82,4.71,6.25,6.25,0,0,1,2.6,5.37,7.84,7.84,0,0,1-2.65,6.35c-1.69,1.42-4.12,2.14-7.22,2.14Zm10.53-6.5a3.22,3.22,0,0,0,2-.52c.12-.11.52-.44.52-1.55a1.27,1.27,0,0,0-.47-1.17,3.66,3.66,0,0,0-2.18-.48H28.88V96.8ZM33.2,86.71a3.25,3.25,0,0,0,2-.43,1.16,1.16,0,0,0,.41-1.06.74.74,0,0,0-.36-.74,4.39,4.39,0,0,0-2.22-.4H28.88v2.63Z" fill="#1c71bb"/><path d="M34.25,78.85a8.12,8.12,0,0,1,5.26,1.55,5.31,5.31,0,0,1,1.9,4.33,5,5,0,0,1-2.13,4.39,4.22,4.22,0,0,1-.78.46,6,6,0,0,1,1.45.76,5.08,5.08,0,0,1,2.24,4.47A6.68,6.68,0,0,1,40,100.22q-2.2,1.84-6.43,1.85H23V78.85H34.25m-6.6,9.09H33.2a4.45,4.45,0,0,0,2.72-.68,2.41,2.41,0,0,0,.89-2,2,2,0,0,0-.94-1.79A5.57,5.57,0,0,0,33,82.84H27.65v5.1m0,10.1h5.9a4.3,4.3,0,0,0,2.84-.82,3.1,3.1,0,0,0,1-2.49,2.53,2.53,0,0,0-1-2.17,5,5,0,0,0-2.91-.71H27.65V98m6.6-21.66H23a2.48,2.48,0,0,0-2.47,2.47v23.22A2.47,2.47,0,0,0,23,104.53H33.55c3.4,0,6.1-.81,8-2.43a9,9,0,0,0,3.08-7.29,7.63,7.63,0,0,0-2.11-5.51,7.92,7.92,0,0,0,1.33-4.57,7.78,7.78,0,0,0-2.8-6.24,10.47,10.47,0,0,0-6.82-2.11Zm-4.14,8.93H33a5.76,5.76,0,0,1,1.13.09,4.57,4.57,0,0,1-.93.08H30.11v-.17Zm0,9h3.35a3.37,3.37,0,0,1,1.4.21,1.1,1.1,0,0,1,0,.21,1.47,1.47,0,0,1-.09.62,2.27,2.27,0,0,1-1.23.22H30.11V94.31Z" fill="#fff"/><rect x="44.75" y="77.62" width="7.31" height="25.68" rx="1.23" fill="#1c71bb"/><path d="M50.83,78.85v23.22H46V78.85h4.85m0-2.47H46a2.47,2.47,0,0,0-2.46,2.47v23.22A2.46,2.46,0,0,0,46,104.53h4.85a2.46,2.46,0,0,0,2.46-2.46V78.85a2.47,2.47,0,0,0-2.46-2.47Z" fill="#fff"/><path d="M65.47,103.94a11.78,11.78,0,0,1-9-3.67c-2.22-2.4-3.35-5.66-3.35-9.68s1.12-7.41,3.34-9.86a11.66,11.66,0,0,1,9-3.75,11.64,11.64,0,0,1,9.07,3.75c2.21,2.45,3.33,5.77,3.33,9.86s-1.12,7.28-3.34,9.68A11.78,11.78,0,0,1,65.47,103.94Zm0-20.37a4.31,4.31,0,0,0-3.66,1.7,8.57,8.57,0,0,0-1.42,5.29,8.12,8.12,0,0,0,1.41,5.13,4.35,4.35,0,0,0,3.67,1.66,4.39,4.39,0,0,0,3.68-1.66,8.18,8.18,0,0,0,1.41-5.13,8.57,8.57,0,0,0-1.42-5.29A4.31,4.31,0,0,0,65.47,83.57Z" fill="#1c71bb"/><path d="M65.48,78.22a10.43,10.43,0,0,1,8.15,3.34c2,2.22,3,5.24,3,9s-1,6.67-3,8.84a10.55,10.55,0,0,1-8.15,3.27,10.56,10.56,0,0,1-8.15-3.27q-3-3.25-3-8.84c0-3.79,1-6.81,3-9a10.44,10.44,0,0,1,8.15-3.34m0,20.36a5.59,5.59,0,0,0,4.63-2.12,9.29,9.29,0,0,0,1.68-5.9,9.71,9.71,0,0,0-1.68-6,6,6,0,0,0-9.27,0,9.71,9.71,0,0,0-1.68,6,9.29,9.29,0,0,0,1.67,5.9,5.59,5.59,0,0,0,4.65,2.12m0-22.83a12.85,12.85,0,0,0-10,4.15c-2.43,2.68-3.66,6.28-3.66,10.69s1.23,7.88,3.67,10.52a13,13,0,0,0,10,4.06,13,13,0,0,0,10-4.06c2.43-2.64,3.66-6.18,3.66-10.52s-1.22-8-3.64-10.69a12.87,12.87,0,0,0-10-4.15Zm0,20.37a3.12,3.12,0,0,1-2.71-1.19,7,7,0,0,1-1.15-4.37A7.42,7.42,0,0,1,62.79,86a3.56,3.56,0,0,1,5.37,0,7.42,7.42,0,0,1,1.17,4.54,7,7,0,0,1-1.15,4.37,3.14,3.14,0,0,1-2.7,1.19Z" fill="#fff"/><path d="M80.52,103.3a1.23,1.23,0,0,1-1.23-1.23V78.85a1.23,1.23,0,0,1,1.23-1.23h4.85a1.23,1.23,0,0,1,1.23,1.23V96.71H96.91A1.24,1.24,0,0,1,98.15,98v4.12a1.23,1.23,0,0,1-1.24,1.23Z" fill="#1c71bb"/><path d="M85.37,78.85V98H96.91v4.12H80.52V78.85h4.85m0-2.47H80.52a2.47,2.47,0,0,0-2.46,2.47v23.22a2.46,2.46,0,0,0,2.46,2.46H96.91a2.46,2.46,0,0,0,2.47-2.46V98a2.46,2.46,0,0,0-2.47-2.47H87.84V78.85a2.48,2.48,0,0,0-2.47-2.47Z" fill="#fff"/><path d="M110.38,103.94a11.77,11.77,0,0,1-9-3.67C99.11,97.87,98,94.61,98,90.59s1.12-7.41,3.34-9.86a12.82,12.82,0,0,1,18.12,0c2.21,2.45,3.33,5.77,3.33,9.86s-1.13,7.28-3.34,9.68A11.78,11.78,0,0,1,110.38,103.94Zm0-20.37a4.31,4.31,0,0,0-3.66,1.7,8.57,8.57,0,0,0-1.42,5.29,8.18,8.18,0,0,0,1.4,5.13,4.9,4.9,0,0,0,7.35,0,8.12,8.12,0,0,0,1.42-5.13A8.5,8.5,0,0,0,114,85.27,4.29,4.29,0,0,0,110.38,83.57Z" fill="#1c71bb"/><path d="M110.38,78.22a10.41,10.41,0,0,1,8.15,3.34c2,2.22,3,5.24,3,9s-1,6.67-3,8.84a11.78,11.78,0,0,1-16.29,0q-3-3.25-3-8.84c0-3.79,1-6.81,3-9a10.43,10.43,0,0,1,8.14-3.34m0,20.36A5.61,5.61,0,0,0,115,96.46a9.29,9.29,0,0,0,1.68-5.9,9.71,9.71,0,0,0-1.68-6,6,6,0,0,0-9.28,0,9.71,9.71,0,0,0-1.67,6,9.29,9.29,0,0,0,1.67,5.9,5.58,5.58,0,0,0,4.64,2.12m0-22.83a12.88,12.88,0,0,0-10,4.15c-2.43,2.68-3.66,6.28-3.66,10.69s1.24,7.88,3.68,10.52a14.23,14.23,0,0,0,19.91,0c2.44-2.64,3.67-6.18,3.67-10.52s-1.23-8-3.65-10.69a12.84,12.84,0,0,0-10-4.15Zm0,20.37a3.15,3.15,0,0,1-2.71-1.19,7.06,7.06,0,0,1-1.14-4.37A7.35,7.35,0,0,1,107.7,86a3.56,3.56,0,0,1,5.37,0,7.42,7.42,0,0,1,1.16,4.54,7,7,0,0,1-1.14,4.37,3.16,3.16,0,0,1-2.71,1.19Z" fill="#fff"/><path d="M135.41,103.94a11.61,11.61,0,0,1-9-3.67c-2.19-2.41-3.3-5.66-3.3-9.68s1.16-7.42,3.43-9.87A12.08,12.08,0,0,1,135.85,77a12.35,12.35,0,0,1,7.72,2.37,9.5,9.5,0,0,1,3.67,6.55,1.26,1.26,0,0,1-.3,1,1.23,1.23,0,0,1-.93.42h-4.86a1.24,1.24,0,0,1-1.23-1.09,2.72,2.72,0,0,0-1.21-1.83,4.21,4.21,0,0,0-2.61-.89,4.84,4.84,0,0,0-4,1.73,8.23,8.23,0,0,0-1.51,5.29A8.09,8.09,0,0,0,132,95.74a4.91,4.91,0,0,0,4.05,1.61,3.88,3.88,0,0,0,3.4-1.66,5.39,5.39,0,0,0,.55-.94h-3.75a1.23,1.23,0,0,1-1.23-1.23v-4a1.23,1.23,0,0,1,1.23-1.23H146a1.24,1.24,0,0,1,1.24,1.23v12.53a1.24,1.24,0,0,1-1.24,1.23h-3.23a1.24,1.24,0,0,1-1.22-1l-.07-.44A9,9,0,0,1,135.41,103.94Z" fill="#1c71bb"/><path d="M135.85,78.22a11.08,11.08,0,0,1,7,2.11A8.2,8.2,0,0,1,146,86.06h-4.86a3.9,3.9,0,0,0-1.7-2.67,5.46,5.46,0,0,0-3.35-1.15,6,6,0,0,0-4.94,2.19,9.29,9.29,0,0,0-1.79,6.07,9.32,9.32,0,0,0,1.7,6,6.14,6.14,0,0,0,5,2,5.15,5.15,0,0,0,4.4-2.16,8.24,8.24,0,0,0,1.27-2.85v0h-5.47v-4H146v12.53h-3.23l-.47-3-.29.38a7.83,7.83,0,0,1-6.61,3.27,10.37,10.37,0,0,1-8.06-3.27q-3-3.25-3-8.84c0-3.79,1-6.81,3.09-9a10.86,10.86,0,0,1,8.38-3.34m0-2.47a13.29,13.29,0,0,0-10.19,4.13c-2.49,2.69-3.75,6.29-3.75,10.71s1.22,7.87,3.62,10.51a12.78,12.78,0,0,0,9.88,4.07A10.59,10.59,0,0,0,141,103.7a2.46,2.46,0,0,0,1.83.81H146a2.47,2.47,0,0,0,2.47-2.46V89.52a2.47,2.47,0,0,0-.71-1.73l.09-.1a2.46,2.46,0,0,0,.6-1.94,10.68,10.68,0,0,0-4.13-7.37,13.52,13.52,0,0,0-8.48-2.63Zm.23,20.37A3.63,3.63,0,0,1,133,95a7,7,0,0,1-1.14-4.45A7,7,0,0,1,133.07,86a3.55,3.55,0,0,1,3-1.28,3,3,0,0,1,1.87.65c.67.51.72.87.73,1a2.75,2.75,0,0,0,.19.71h-2.61a2.46,2.46,0,0,0-2.46,2.46v4A2.46,2.46,0,0,0,136.28,96h.83a3.56,3.56,0,0,1-1,.14Z" fill="#fff"/><path d="M156.7,103.3a1.23,1.23,0,0,1-1.23-1.23V93.66l-7.94-14.21a1.24,1.24,0,0,1,1.08-1.83h5.77a1.21,1.21,0,0,1,1.11.7L159.17,86l3.43-7.65a1.23,1.23,0,0,1,1.13-.73h5.5a1.25,1.25,0,0,1,1.06.6,1.24,1.24,0,0,1,0,1.21l-7.54,14.12v8.52a1.23,1.23,0,0,1-1.23,1.23Z" fill="#1c71bb"/><path d="M169.23,78.85l-7.68,14.4v8.82H156.7V93.34l-8.09-14.49h5.77l4.83,10.08,4.52-10.08h5.5m0-2.47h-5.5a2.48,2.48,0,0,0-2.25,1.46l-2.34,5.23-2.54-5.29a2.47,2.47,0,0,0-2.22-1.4h-5.77a2.46,2.46,0,0,0-2.15,3.67L154.24,94v8.09a2.46,2.46,0,0,0,2.46,2.46h4.85a2.47,2.47,0,0,0,2.47-2.46V93.86L171.4,80a2.47,2.47,0,0,0-2.17-3.63Z" fill="#fff"/><path d="M178.38,103.3a1.24,1.24,0,0,1-1.24-1.23V98a1.22,1.22,0,0,1,.28-.77l10.43-13h-9.07A1.24,1.24,0,0,1,177.54,83V78.85a1.24,1.24,0,0,1,1.24-1.23h17.75a1.23,1.23,0,0,1,1.23,1.23v3.83a1.21,1.21,0,0,1-.27.77L186.85,96.71h9.64A1.25,1.25,0,0,1,197.73,98v4.12a1.24,1.24,0,0,1-1.24,1.23Z" fill="#224365"/><path d="M196.53,78.85v3.83L184.28,98h12.21v4.12H178.38V98l12-15H178.78V78.85h17.75m0-2.47H178.78a2.48,2.48,0,0,0-2.47,2.47V83a2.48,2.48,0,0,0,2.47,2.47h6.5l-8.83,11a2.47,2.47,0,0,0-.54,1.54v4.07a2.47,2.47,0,0,0,2.47,2.46h18.11a2.47,2.47,0,0,0,2.47-2.46V98a2.47,2.47,0,0,0-2.47-2.47h-7.07l9-11.26a2.46,2.46,0,0,0,.55-1.54V78.85a2.48,2.48,0,0,0-2.47-2.47Z" fill="#fff"/><path d="M209.91,103.94a11.79,11.79,0,0,1-9-3.67c-2.22-2.4-3.35-5.66-3.35-9.68s1.13-7.41,3.34-9.86a12.82,12.82,0,0,1,18.12,0c2.21,2.45,3.33,5.77,3.33,9.86s-1.12,7.28-3.34,9.68A11.78,11.78,0,0,1,209.91,103.94Zm0-20.37a4.29,4.29,0,0,0-3.66,1.7,8.5,8.5,0,0,0-1.43,5.29,8.18,8.18,0,0,0,1.41,5.13,4.9,4.9,0,0,0,7.35,0A8.18,8.18,0,0,0,215,90.56a8.57,8.57,0,0,0-1.42-5.29A4.31,4.31,0,0,0,209.91,83.57Z" fill="#224365"/><path d="M209.91,78.22a10.43,10.43,0,0,1,8.15,3.34c2,2.22,3,5.24,3,9s-1,6.67-3,8.84a11.78,11.78,0,0,1-16.29,0q-3-3.25-3-8.84c0-3.79,1-6.81,3-9a10.4,10.4,0,0,1,8.14-3.34m0,20.36a5.57,5.57,0,0,0,4.63-2.12,9.29,9.29,0,0,0,1.68-5.9,9.71,9.71,0,0,0-1.68-6,6,6,0,0,0-9.27,0,9.71,9.71,0,0,0-1.68,6,9.35,9.35,0,0,0,1.67,5.9,5.59,5.59,0,0,0,4.65,2.12m0-22.83a12.85,12.85,0,0,0-10,4.15c-2.43,2.68-3.66,6.28-3.66,10.69s1.24,7.88,3.68,10.52a14.23,14.23,0,0,0,19.91,0c2.43-2.64,3.67-6.18,3.67-10.52s-1.23-8-3.65-10.69a12.87,12.87,0,0,0-10-4.15Zm0,20.37a3.13,3.13,0,0,1-2.71-1.19,7,7,0,0,1-1.14-4.37A7.42,7.42,0,0,1,207.22,86a3.56,3.56,0,0,1,5.37,0,7.35,7.35,0,0,1,1.17,4.54,7,7,0,0,1-1.15,4.37,3.14,3.14,0,0,1-2.7,1.19Z" fill="#fff"/><path d="M238.82,103.3a1.24,1.24,0,0,1-1.07-.62L230.47,90v12.09a1.23,1.23,0,0,1-1.23,1.23h-4.52a1.23,1.23,0,0,1-1.23-1.23V78.85a1.23,1.23,0,0,1,1.23-1.23h5.08a1.24,1.24,0,0,1,1.07.62l7,12.25V78.85a1.23,1.23,0,0,1,1.23-1.23h4.54a1.23,1.23,0,0,1,1.23,1.23v23.22a1.23,1.23,0,0,1-1.23,1.23Z" fill="#224365"/><path d="M243.65,78.85v23.22h-4.83l-9.58-16.72v16.72h-4.52V78.85h5.08l9.31,16.28V78.85h4.54m0-2.47h-4.54a2.47,2.47,0,0,0-2.46,2.47v7l-4.71-8.22a2.46,2.46,0,0,0-2.14-1.25h-5.08a2.48,2.48,0,0,0-2.47,2.47v23.22a2.47,2.47,0,0,0,2.47,2.46h4.52a2.46,2.46,0,0,0,2.46-2.46V94.61l5,8.68a2.47,2.47,0,0,0,2.14,1.24h4.83a2.47,2.47,0,0,0,2.47-2.46V78.85a2.48,2.48,0,0,0-2.47-2.47Z" fill="#fff"/><path d="M248.32,103.3a1.23,1.23,0,0,1-1.24-1.23V78.85a1.23,1.23,0,0,1,1.24-1.23H265.4a1.23,1.23,0,0,1,1.23,1.23V83a1.23,1.23,0,0,1-1.23,1.23h-11v2.48h10.12a1.23,1.23,0,0,1,1.23,1.23v4a1.24,1.24,0,0,1-1.23,1.24H254.39v3.57h11.55A1.24,1.24,0,0,1,267.17,98v4.12a1.23,1.23,0,0,1-1.23,1.23Z" fill="#224365"/><path d="M265.4,78.85V83H253.16v4.94h11.35v4H253.16v6h12.78v4.12H248.32V78.85H265.4m0-2.47H248.32a2.47,2.47,0,0,0-2.47,2.47v23.22a2.46,2.46,0,0,0,2.47,2.46h17.62a2.47,2.47,0,0,0,2.47-2.46V98a2.47,2.47,0,0,0-2.47-2.47H255.63V94.37h8.88A2.47,2.47,0,0,0,267,91.9v-4a2.47,2.47,0,0,0-2.46-2.47h.89A2.47,2.47,0,0,0,267.86,83V78.85a2.47,2.47,0,0,0-2.46-2.47Z" fill="#fff"/></g></svg>